<svg width="309" height="373" viewBox="0 0 309 373" fill="none" xmlns="http://www.w3.org/2000/svg">
<g clip-path="url(#clip0_1259_20925)">
<path d="M-0.00012207 287.946C-0.00012207 287.946 3.27132 291.698 15.2546 291.501C27.2379 291.305 22.3259 272.258 22.3259 272.258C22.3259 272.258 12.3074 271.432 11.325 272.258C10.3426 273.085 -0.00012207 287.946 -0.00012207 287.946Z" fill="#362E4D"/>
<path d="M215.332 130.899C215.332 130.899 235.748 140.648 248.925 171.994C261.12 200.982 278.181 252.319 278.181 252.319L204.112 266.425L215.332 130.899Z" fill="#8ABADD"/>
<path d="M306.24 324.924C306.24 324.924 308.565 335.466 308.985 342.174C309.226 346.069 306.475 351.881 301.614 350.204C297.374 348.743 294.447 343.36 293.207 339.452C291.783 334.963 290.712 328.575 290.712 328.575L306.24 324.924Z" fill="#A66161"/>
<path d="M120.962 108.909L85.4758 118.971L114.539 171.996C114.539 171.996 141.357 174.61 145.496 174.61C149.634 174.61 159.059 175.654 161.156 170.168C163.253 164.682 177.941 122.102 177.941 122.102L149.118 118.444L120.962 108.909Z" fill="#A66161"/>
<path d="M135.284 57.8096C135.284 40.39 150.224 27.6733 168.484 27.6733C183.952 27.6733 201.688 38.9861 201.688 56.4056C201.688 73.8252 186.883 87.9482 168.623 87.9482C150.364 87.9482 135.284 75.2291 135.284 57.8096Z" fill="#362E4D"/>
<path d="M164.468 109.999L162.607 116.034L159.268 126.865L157.611 132.26L133.817 147.128L112.663 122.639L138.775 79.4409L164.468 109.999Z" fill="#A66161"/>
<path d="M162.606 116.031L159.268 126.865C157.771 126.585 155.905 125.748 153.743 123.841C143.381 114.771 143.091 99.455 143.091 99.455L162.606 116.031Z" fill="#362E4D"/>
<path d="M136.418 70.5454C136.363 72.2835 136.443 74.0233 136.658 75.749C137.166 79.9642 138.455 84.0487 140.458 87.7948C141.044 88.9347 141.705 90.0344 142.437 91.0866C146.946 97.5911 153.726 102.167 161.828 103.374C172.906 105.02 183.652 99.9413 190.536 90.962C190.661 90.8039 193.255 85.804 194.905 82.6224C195.203 82.0426 195.47 81.5251 195.691 81.1035C195.957 80.586 196.144 80.2099 196.224 80.0829C196.235 80.0702 196.241 80.0541 196.241 80.0374L196.255 80.0206C196.255 80.0206 196.286 79.9272 196.349 79.7547C196.411 79.5822 196.459 79.3953 196.538 79.127C197.355 76.5108 198.172 74.1917 199.603 69.3044C205.07 50.5121 189.405 38.9597 172.654 36.4538C157.269 34.1634 142.548 44.8389 137.912 60.8713C137.912 60.8713 137.895 60.9336 137.864 61.0271C137.443 62.4519 137.117 63.9029 136.889 65.3706C136.611 67.0824 136.453 68.8116 136.418 70.5454Z" fill="#A66161"/>
<path d="M140.809 96.18C142.01 106.039 147.818 115.269 160.265 119.179C171.753 122.799 180.081 114.431 185.17 105.921C188.66 100.059 193.217 88.2093 195.227 82.8189C195.479 82.16 195.708 81.597 195.857 81.1562C196.061 80.5764 196.202 80.186 196.234 80.059C196.245 80.0463 196.25 80.0302 196.25 80.0135L195.604 80.4207L194.615 80.6603L192.352 81.1778L166.603 87.0761L142.73 68.6624L142.166 68.2239C142.16 68.3552 142.144 68.4857 142.118 68.6144C142.103 68.7031 142.098 68.793 142.101 68.8828C141.993 69.6015 141.834 70.9024 141.71 72.6273C141.347 76.3575 140.561 81.9061 140.453 87.7829C140.375 90.5868 140.494 93.3927 140.809 96.18Z" fill="#A66161"/>
<path d="M169.521 76.8511C168.116 77.1937 166.934 79.0911 166.699 80.6843C166.596 81.3719 166.745 82.1553 167.215 82.5745C167.898 83.1759 168.897 82.7758 169.567 82.1361C170.147 81.5671 170.595 80.8787 170.881 80.1189C171.137 79.5145 171.225 78.8524 171.135 78.2023C171.025 77.5626 170.621 76.9709 170.079 76.8415C169.895 76.7992 169.704 76.8025 169.521 76.8511Z" fill="#362E4D"/>
<path d="M187.955 84.333C186.605 84.6612 185.469 86.4892 185.24 88.0081C185.142 88.6717 185.284 89.424 185.74 89.8265C186.393 90.4039 187.359 90.0181 187.998 89.4048C188.556 88.8583 188.987 88.1968 189.261 87.4667C189.504 86.8873 189.587 86.2536 189.501 85.6315C189.393 85.0158 189.007 84.4336 188.485 84.3234C188.31 84.2842 188.128 84.2875 187.955 84.333Z" fill="#362E4D"/>
<path d="M175.267 94.7426C176.117 94.7426 176.864 94.6827 177.225 94.503C177.585 94.3233 178.339 93.952 178.724 86.7911C178.732 86.5853 178.658 86.3847 178.519 86.2324C178.38 86.0802 178.187 85.9887 177.981 85.9777C177.775 85.9667 177.572 86.037 177.418 86.1736C177.263 86.3101 177.169 86.5018 177.155 86.7072C177.018 89.2755 176.694 92.3253 176.391 93.1302C175.791 93.2261 173.949 93.1614 172.428 93.0224C172.224 93.0105 172.024 93.0781 171.87 93.2109C171.715 93.3436 171.618 93.5312 171.6 93.7338C171.581 93.9364 171.643 94.1382 171.771 94.2965C171.899 94.4549 172.084 94.5572 172.286 94.5821C173.105 94.6467 174.258 94.7426 175.267 94.7426Z" fill="#362E4D"/>
<path d="M175.692 99.57C173.761 99.1495 171.895 98.4735 170.144 97.5599C168.109 96.5175 166.217 95.217 164.516 93.6908C164.516 93.6908 163.635 98.1421 167.511 100.224C171.472 102.351 175.692 99.57 175.692 99.57Z" fill="white"/>
<path d="M166.479 69.2038C166.666 69.1128 166.862 69.0413 167.065 68.9906C169.532 68.392 172.134 68.7338 174.362 69.9489C175.496 70.5766 178.781 73.2574 176.334 74.3811C176.037 74.4982 175.72 74.5552 175.4 74.5486C175.081 74.542 174.766 74.472 174.475 74.3427C173.893 74.0825 173.337 73.768 172.815 73.4036C171.136 72.3543 169.279 71.6187 167.336 71.233C166.659 71.0989 165.796 70.8258 165.772 70.1358C165.758 69.7093 166.08 69.4051 166.479 69.2038Z" fill="#362E4D"/>
<path d="M189.42 79.9943C189.979 80.2949 190.57 80.5358 191.18 80.713C191.574 80.8544 191.966 81.0101 192.343 81.1922C193.243 81.5852 194.101 82.0667 194.906 82.6296C195.014 82.6974 195.118 82.771 195.218 82.85C195.47 82.1912 195.698 81.6282 195.847 81.1874C196.051 80.6076 196.193 80.2171 196.224 80.0901C196.235 80.0775 196.241 80.0613 196.241 80.0446L196.255 80.0278C196.255 80.0278 196.287 79.9344 196.349 79.7619C195.397 78.7251 194.231 77.9062 192.931 77.3614C191.845 76.9229 189.614 76.4821 188.562 77.2823C187.457 78.128 188.509 79.46 189.42 79.9943Z" fill="#362E4D"/>
<path d="M200.466 65.3035C200.466 65.3035 171.402 50.7253 167.578 50.3324C163.754 49.9395 159.133 65.9048 155.105 65.7108C151.077 65.5167 146.071 71.4438 142.536 75.8999C139 80.356 137.761 81.1155 137.761 81.1155C136.831 77.9719 136.163 74.757 135.765 71.5037C135.565 69.8458 132.623 50.1 139.742 42.8504C144.15 38.3656 150.741 37.2084 156.095 37.1198C161.449 37.0312 167.487 34.8678 169.353 35.0642C171.22 35.2607 174.359 34.0916 180.549 35.0499C186.739 36.0082 192.825 39.9612 195.181 42.2132C197.538 44.4652 201.467 50.2461 201.667 55.8307C201.866 61.4152 200.466 65.3035 200.466 65.3035Z" fill="#362E4D"/>
<path d="M155.144 71.0246C153.784 77.438 149.285 81.9205 145.094 81.0364C140.903 80.1524 138.609 74.2373 139.971 67.8239C141.333 61.4104 145.829 56.9256 150.02 57.8096C154.212 58.6936 156.503 64.604 155.144 71.0246Z" fill="#A66161"/>
<path d="M167.471 36.1304C167.471 36.1304 174.134 22.3644 176.742 16.3295C178.279 12.8077 181.436 6.63385 178.52 3.05699C176.151 0.153331 172.392 3.85477 171.201 6.11397C170.211 7.98745 168.926 12.0315 168.926 12.0315C168.926 12.0315 168.333 0 162.006 0C154.589 0 159.138 13.215 159.138 13.215C159.138 13.215 152.86 2.89408 147.768 5.81929C141.241 9.56626 150.551 18.9313 154.094 23.0687C159.234 29.0989 167.471 36.1304 167.471 36.1304Z" fill="#362E4D"/>
<path d="M166.668 120.672C166.668 120.672 154.152 153.187 143.088 155.147C132.025 157.106 105.524 113.283 105.524 113.283L85.4753 118.968C85.4753 118.968 90.1903 174.346 88.2255 179.44C86.2607 184.533 110.225 271.518 105.118 307.565C100.012 343.611 101.583 373 101.583 373H192.21C192.21 373 195.66 202.552 196.349 186.883C197.038 171.215 196.058 125.552 194.29 124.594C192.523 123.635 166.668 120.672 166.668 120.672Z" fill="#F5CABF"/>
<path d="M92.5687 116.956C92.5687 116.956 99.3878 141.798 105.119 175.719C108.294 194.526 113.028 244.221 114.808 262.117C121.863 333.113 118.212 373.002 118.212 373.002H44.2321C44.2321 373.002 41.6788 357.72 39.9086 329.507C38.1384 301.295 41.2849 141.63 44.8205 137.128C48.3562 132.627 62.8351 127.464 67.5381 125.375C72.2411 123.286 92.5687 116.956 92.5687 116.956Z" fill="#8ABADD"/>
<path d="M183.383 122.727C183.383 122.727 189.184 145.741 190.363 161.414C191.543 177.087 191.874 226.066 192.21 240.165C192.547 254.264 191.49 309.91 190.529 322.447C189.568 334.984 187.02 372.998 187.02 372.998H228.076C228.076 372.998 227.291 325.978 229.647 304.429C232.003 282.879 232.397 158.048 227.944 147.126C223.491 136.203 217.224 129.637 204.112 126.295C197.305 124.573 190.375 123.381 183.383 122.727Z" fill="#8ABADD"/>
<path d="M225.511 232.168C225.708 232.168 225.899 232.094 226.044 231.961C226.189 231.828 226.28 231.645 226.296 231.449L229.337 187.911C229.352 187.705 229.285 187.501 229.15 187.344C229.015 187.187 228.823 187.089 228.617 187.073C228.411 187.064 228.21 187.133 228.054 187.266C227.898 187.4 227.798 187.587 227.776 187.791L224.735 231.32C224.721 231.526 224.788 231.729 224.923 231.886C225.058 232.042 225.249 232.139 225.456 232.156L225.511 232.168Z" fill="#362E4D"/>
<path d="M121.863 230.893L108.26 247.225C108.26 247.225 128.951 285.886 135.758 286.669C142.565 287.452 164.468 286.669 164.468 286.669L158.019 229.463L121.863 230.893Z" fill="#A66161"/>
<path d="M121.862 230.893C121.862 230.893 129.865 219.394 148.723 216.279C167.581 213.165 201.566 214.712 208.236 214.712C212.161 214.712 217.575 214.861 221.545 214.861C229.07 214.861 235.284 223.263 230.192 229.94C227.295 233.749 223.263 233.739 220.181 233.749L209.065 233.783L192.542 233.833L157.524 233.938C153.846 233.938 149.814 234.434 146.158 233.972L121.862 230.893Z" fill="#A66161"/>
<path d="M175.041 233.512C175.072 233.514 175.102 233.514 175.132 233.512C175.231 233.512 184.896 232.295 184.995 224.123C185.093 215.951 176.016 214.729 175.925 214.717C175.718 214.691 175.51 214.749 175.345 214.876C175.181 215.004 175.074 215.191 175.048 215.398C175.023 215.604 175.08 215.812 175.208 215.976C175.336 216.14 175.524 216.246 175.731 216.272C176.048 216.313 183.503 217.333 183.417 224.104C183.333 230.913 175.029 231.945 174.945 231.957C174.745 231.979 174.562 232.077 174.432 232.23C174.302 232.383 174.236 232.58 174.248 232.78C174.259 232.98 174.347 233.168 174.493 233.306C174.639 233.443 174.833 233.52 175.034 233.519L175.041 233.512Z" fill="white"/>
<path d="M194.271 233.512C194.302 233.514 194.332 233.514 194.362 233.512C194.461 233.512 204.126 232.295 204.225 224.123C204.323 215.951 195.246 214.729 195.155 214.717C194.948 214.691 194.74 214.749 194.575 214.876C194.411 215.004 194.304 215.191 194.278 215.398C194.253 215.604 194.31 215.812 194.438 215.976C194.566 216.14 194.754 216.246 194.961 216.272C195.278 216.313 202.736 217.333 202.647 224.104C202.565 230.913 194.259 231.945 194.175 231.957C193.975 231.979 193.792 232.077 193.662 232.23C193.532 232.383 193.466 232.58 193.478 232.78C193.489 232.98 193.577 233.168 193.723 233.306C193.869 233.443 194.063 233.52 194.264 233.519L194.271 233.512Z" fill="white"/>
<path d="M213.504 233.512C213.533 233.514 213.563 233.514 213.592 233.512C213.691 233.512 223.356 232.295 223.455 224.123C223.553 215.951 214.476 214.729 214.385 214.717C214.178 214.691 213.97 214.749 213.805 214.876C213.641 215.004 213.534 215.191 213.508 215.398C213.483 215.604 213.54 215.812 213.668 215.976C213.796 216.14 213.984 216.246 214.19 216.272C214.51 216.313 221.966 217.333 221.877 224.104C221.795 230.913 213.489 231.945 213.407 231.957C213.208 231.979 213.024 232.077 212.894 232.23C212.765 232.383 212.699 232.58 212.71 232.78C212.721 232.98 212.809 233.168 212.956 233.306C213.102 233.443 213.295 233.52 213.496 233.519L213.504 233.512Z" fill="white"/>
<path d="M160.615 233.74H303C306.314 233.74 309 236.426 309 239.74V331.737C309 335.051 306.314 337.737 303 337.737H160.615C157.302 337.737 154.615 335.051 154.615 331.737V239.74C154.615 236.426 157.302 233.74 160.615 233.74Z" fill="#FCFCF0"/>
<mask id="mask0_1259_20925" style="mask-type:alpha" maskUnits="userSpaceOnUse" x="154" y="233" width="155" height="105">
<path d="M160.615 233.74H303C306.314 233.74 309 236.426 309 239.74V331.737C309 335.051 306.314 337.737 303 337.737H160.615C157.302 337.737 154.615 335.051 154.615 331.737V239.74C154.615 236.426 157.302 233.74 160.615 233.74Z" fill="#FCFCF0"/>
</mask>
<g mask="url(#mask0_1259_20925)">
<path d="M206.116 385.656C226.558 354.333 202.223 279.778 147.821 275.652C79.8189 270.494 123.213 447.492 206.116 385.656Z" fill="#F87C56"/>
<path d="M354.168 222.056C341.856 204.047 296.176 200.395 281.745 228.695C263.707 264.071 368.929 280.466 354.168 222.056Z" fill="#F68D2E"/>
<path d="M129.03 423.018C155.385 398.73 202.334 342.277 179.3 310.767C150.506 271.379 46.7936 428.734 129.03 423.018Z" fill="#ECB3CB"/>
</g>
<path d="M284.998 358.767C287.46 357.998 290.215 355.535 291.42 344.833C292.626 334.131 290.378 324.555 287.368 321.522C283.765 317.902 279.007 319.464 277.602 321.297C276.761 322.393 276.237 323.698 276.086 325.07C276.086 325.07 276.103 319.285 271.208 318.123C266.313 316.961 263.282 321.252 262.89 323.372C262.648 324.882 262.547 326.412 262.587 327.941C262.587 327.941 261.194 323.357 256.705 323.087C252.216 322.816 249.682 326.764 249.338 328.837C249.133 330.103 249.075 331.39 249.165 332.67C249.165 332.67 247.023 329.002 241.876 329.927C236.728 330.851 236.418 339.529 235.948 345.76C235.724 348.69 235.419 351.56 236.908 354.239C237.659 355.606 238.747 356.76 240.069 357.593C241.391 358.425 242.904 358.907 244.465 358.994C246.72 359.093 249.103 357.878 249.103 357.878C249.103 357.878 250.304 360.856 253.186 362.162C256.868 363.839 262.088 362.641 263.543 358.422C264.242 359.599 265.231 360.577 266.416 361.265C267.602 361.952 268.944 362.325 270.314 362.348C275.174 362.531 278.058 355.489 278.058 355.489C278.058 355.489 280.472 360.192 284.998 358.767Z" fill="#A66161"/>
<path d="M278.18 355.202H278.236C278.442 355.185 278.633 355.087 278.768 354.931C278.902 354.775 278.97 354.572 278.956 354.366L276.972 325.964C276.952 325.76 276.853 325.571 276.696 325.437C276.54 325.303 276.337 325.234 276.132 325.245C275.925 325.262 275.734 325.359 275.599 325.516C275.464 325.672 275.396 325.876 275.411 326.082L277.395 354.483C277.411 354.68 277.501 354.863 277.647 354.996C277.792 355.129 277.983 355.203 278.18 355.202Z" fill="white"/>
<path d="M263.293 358.53H263.308C263.516 358.523 263.713 358.435 263.856 358.284C263.999 358.133 264.077 357.932 264.072 357.725L263.286 328.832C263.277 328.625 263.187 328.43 263.037 328.288C262.886 328.146 262.686 328.068 262.479 328.07C262.376 328.073 262.274 328.096 262.18 328.138C262.086 328.18 262.001 328.24 261.93 328.315C261.859 328.389 261.803 328.477 261.767 328.573C261.73 328.67 261.712 328.772 261.715 328.875L262.498 357.768C262.505 357.973 262.591 358.168 262.74 358.31C262.889 358.453 263.087 358.532 263.293 358.53Z" fill="white"/>
<path d="M248.927 357.777C249.135 357.777 249.335 357.695 249.482 357.549C249.629 357.402 249.712 357.204 249.713 356.996L249.729 333.113C249.73 333.01 249.71 332.908 249.671 332.813C249.631 332.718 249.574 332.631 249.501 332.558C249.428 332.485 249.342 332.427 249.247 332.388C249.152 332.348 249.05 332.328 248.946 332.327C248.738 332.328 248.539 332.411 248.392 332.557C248.245 332.704 248.162 332.903 248.161 333.111L248.142 356.994C248.142 357.202 248.225 357.401 248.372 357.548C248.519 357.695 248.719 357.777 248.927 357.777Z" fill="white"/>
<path d="M12.3295 282.63C12.3295 282.63 12.99 297.709 15.5817 307.268C17.657 314.994 21.5697 323.192 28.5137 327.754C40.5234 335.621 62.6909 326.185 74.5397 321.86C87.7071 317.069 100.687 311.626 113.478 305.763C117.594 303.869 121.695 301.936 125.78 299.965C134.427 295.78 143.019 291.422 151.481 286.971L119.775 236.253L105.666 242.336V242.35L91.5238 248.447L12.3295 282.63Z" fill="#A66161"/>
<path d="M12.3289 282.63L11.3249 268.775L72.7041 256.571L28.0208 287.946L12.3289 282.63Z" fill="#A66161"/>
<path d="M47.8536 134.512C47.8536 134.512 18.1968 145.207 8.76924 195.211C1.12866 235.73 -0.00265503 287.927 -0.00265503 287.927C-0.00265503 287.927 9.75162 280.902 25.2682 274.031C40.7847 267.16 72.7017 256.542 72.7017 256.542L47.8536 134.512Z" fill="#8ABADD"/>
<path d="M129.736 270.996H129.76C130.055 270.996 137.083 270.79 143.256 264.767C149.357 258.816 152.132 249.674 152.247 249.278C152.306 249.079 152.284 248.864 152.184 248.681C152.084 248.498 151.916 248.362 151.716 248.303C151.516 248.244 151.301 248.267 151.117 248.366C150.934 248.465 150.798 248.633 150.738 248.833C150.712 248.924 147.962 257.985 142.159 263.646C136.425 269.242 129.796 269.429 129.731 269.431C129.523 269.433 129.324 269.518 129.178 269.666C129.032 269.814 128.951 270.014 128.953 270.222C128.955 270.43 129.039 270.628 129.188 270.774C129.337 270.919 129.537 271 129.745 270.998L129.736 270.996Z" fill="white"/>
<path d="M101.473 290.921C105.715 297.222 109.752 302.064 113.482 305.775C117.599 303.881 121.7 301.948 125.785 299.977C121.983 296.841 117.27 291.858 111.912 283.926C100.284 266.676 103.505 249.506 105.666 242.359L91.5239 248.457C90.0491 259.403 90.8177 275.107 101.473 290.921Z" fill="white"/>
<path d="M192.211 176.5H192.235C211.21 175.906 211.887 175.489 212.111 175.353C214.032 174.176 208.885 156.007 206.418 148.628C201.936 135.212 197.091 125.504 197.051 125.408C196.957 125.222 196.794 125.081 196.596 125.016C196.398 124.95 196.182 124.965 195.996 125.058C195.81 125.152 195.668 125.315 195.602 125.512C195.537 125.709 195.552 125.924 195.645 126.11C195.693 126.206 200.49 135.82 204.936 149.124C209.116 161.63 211.121 171.972 211.061 174.059C209.2 174.298 198.718 174.73 192.194 174.933C191.986 174.936 191.787 175.022 191.642 175.171C191.497 175.32 191.417 175.521 191.42 175.729C191.424 175.936 191.509 176.134 191.659 176.279C191.809 176.424 192.01 176.503 192.218 176.5H192.211Z" fill="white"/>
<path d="M90.4639 179.49C93.8674 179.49 98.1501 179.445 103.562 179.339C103.665 179.337 103.767 179.314 103.861 179.273C103.955 179.232 104.041 179.172 104.112 179.098C104.184 179.024 104.24 178.936 104.277 178.84C104.314 178.744 104.333 178.642 104.33 178.539C104.335 178.434 104.317 178.33 104.279 178.233C104.24 178.135 104.18 178.047 104.105 177.975C104.029 177.902 103.938 177.847 103.839 177.812C103.74 177.777 103.635 177.763 103.53 177.772C92.9019 177.978 81.0483 177.957 78.7496 177.533C78.6175 174.96 78.6487 161.407 79.6455 150.813C80.8753 137.727 81.8073 122.435 81.8073 122.282C81.8197 122.074 81.749 121.87 81.6107 121.715C81.4724 121.56 81.2779 121.465 81.0699 121.453C80.8619 121.44 80.6575 121.511 80.5016 121.649C80.3458 121.787 80.2512 121.981 80.2388 122.188C80.2388 122.342 79.3093 137.607 78.0771 150.667C77.0058 162.037 77.0178 177.128 77.2364 178.218C77.3613 178.834 77.4958 179.49 90.4639 179.49Z" fill="white"/>
<path d="M76.0765 254.47H76.1606C76.3678 254.448 76.5576 254.344 76.6886 254.183C76.8196 254.021 76.8811 253.814 76.8595 253.607L70.1101 190.877C70.1009 190.774 70.071 190.674 70.0221 190.583C69.9733 190.492 69.9065 190.411 69.8258 190.346C69.7451 190.282 69.6521 190.234 69.5523 190.205C69.4526 190.177 69.3482 190.169 69.2454 190.182C69.0384 190.205 68.8487 190.308 68.7181 190.47C68.5875 190.631 68.5266 190.838 68.5488 191.045L75.2959 253.773C75.3177 253.964 75.4092 254.141 75.5531 254.27C75.6971 254.398 75.8833 254.469 76.0765 254.47Z" fill="white"/>
<path d="M144.532 78.2286C145.189 78.2286 145.831 78.0343 146.377 77.6702C146.923 77.3061 147.349 76.7886 147.601 76.1832C147.852 75.5778 147.918 74.9116 147.79 74.2689C147.662 73.6261 147.345 73.0358 146.881 72.5724C146.416 72.109 145.824 71.7934 145.18 71.6656C144.535 71.5378 143.867 71.6034 143.26 71.8541C142.653 72.1049 142.135 72.5296 141.77 73.0745C141.405 73.6193 141.21 74.2599 141.21 74.9153C141.21 75.7938 141.561 76.6362 142.183 77.2574C142.806 77.8787 143.651 78.228 144.532 78.2286ZM144.532 73.1688C144.878 73.1688 145.216 73.2712 145.504 73.4631C145.792 73.655 146.017 73.9278 146.149 74.2469C146.282 74.566 146.317 74.9172 146.249 75.256C146.181 75.5948 146.015 75.906 145.77 76.1502C145.525 76.3945 145.213 76.5608 144.873 76.6282C144.534 76.6956 144.182 76.661 143.862 76.5288C143.542 76.3966 143.268 76.1728 143.076 75.8856C142.883 75.5983 142.781 75.2607 142.781 74.9153C142.784 74.4543 142.971 74.0135 143.298 73.6887C143.626 73.3639 144.07 73.1813 144.532 73.1807V73.1688Z" fill="#362E4D"/>
<path d="M160.556 29.4198C160.615 29.4194 160.673 29.4129 160.731 29.4007C160.753 29.4007 162.878 28.9215 164.968 28.6819C167.058 28.4424 170.663 28.5382 170.701 28.5406C170.906 28.5326 171.1 28.4506 171.248 28.31C171.396 28.1693 171.488 27.9796 171.506 27.7763C171.509 27.6735 171.491 27.571 171.455 27.4749C171.418 27.3787 171.362 27.2907 171.291 27.216C171.22 27.1412 171.135 27.0811 171.041 27.0392C170.947 26.9972 170.845 26.9742 170.742 26.9714C170.591 26.9714 166.978 26.8755 164.79 27.1247C162.602 27.3739 160.467 27.8434 160.383 27.8722C160.196 27.9167 160.032 28.0278 159.921 28.1845C159.811 28.3413 159.761 28.5329 159.783 28.7234C159.804 28.9138 159.894 29.09 160.037 29.2187C160.179 29.3474 160.364 29.4198 160.556 29.4222V29.4198Z" fill="#0F0A1C"/>
<path d="M167.677 28.1406C167.875 28.1406 168.065 28.0668 168.21 27.9336C168.355 27.8005 168.444 27.6178 168.46 27.4218L169.589 12.8269C169.602 12.6217 169.533 12.4198 169.397 12.2649C169.262 12.1099 169.071 12.0142 168.865 11.9985C168.66 11.9828 168.456 12.0483 168.299 12.1808C168.141 12.3134 168.042 12.5024 168.023 12.7071L166.894 27.302C166.886 27.4045 166.898 27.5075 166.93 27.6053C166.962 27.703 167.013 27.7936 167.08 27.8717C167.147 27.9498 167.228 28.014 167.32 28.0605C167.412 28.1071 167.512 28.1351 167.615 28.143L167.677 28.1406Z" fill="#0F0A1C"/>
<path d="M164.151 28.2005L165.604 27.6015C165.604 27.6015 163.875 23.4281 162.782 20.7473C161.483 17.5609 159.984 13.5145 159.97 13.4738C159.897 13.2787 159.75 13.1203 159.561 13.0334C159.371 12.9464 159.155 12.9381 158.96 13.0102C158.764 13.0823 158.605 13.229 158.518 13.4179C158.431 13.6068 158.422 13.8226 158.495 14.0176C158.509 14.0583 160.018 18.1287 161.327 21.339C162.427 24.0223 164.151 28.2005 164.151 28.2005Z" fill="#0F0A1C"/>
<path d="M99.2241 187.921C99.2241 188.522 99.4027 189.109 99.7373 189.608C100.072 190.108 100.548 190.497 101.104 190.727C101.661 190.957 102.273 191.017 102.864 190.9C103.455 190.783 103.997 190.494 104.423 190.069C104.849 189.644 105.139 189.103 105.257 188.513C105.374 187.924 105.314 187.313 105.084 186.758C104.853 186.203 104.463 185.729 103.962 185.395C103.461 185.061 102.872 184.883 102.27 184.883C101.462 184.883 100.687 185.203 100.116 185.773C99.5449 186.342 99.2241 187.115 99.2241 187.921Z" fill="white"/>
<path d="M105.215 236.253C105.214 236.854 105.393 237.441 105.727 237.941C106.061 238.441 106.537 238.831 107.093 239.061C107.65 239.291 108.262 239.352 108.853 239.235C109.444 239.118 109.987 238.829 110.413 238.404C110.839 237.979 111.13 237.438 111.247 236.849C111.365 236.259 111.305 235.648 111.075 235.093C110.844 234.538 110.454 234.063 109.953 233.729C109.452 233.395 108.863 233.217 108.26 233.217C107.453 233.217 106.679 233.537 106.108 234.106C105.537 234.675 105.215 235.447 105.215 236.253Z" fill="white"/>
<path d="M111.306 339.5C111.306 340.101 111.484 340.688 111.819 341.188C112.154 341.688 112.63 342.077 113.186 342.307C113.743 342.537 114.356 342.597 114.946 342.479C115.537 342.362 116.08 342.072 116.506 341.647C116.932 341.222 117.222 340.681 117.339 340.091C117.456 339.502 117.395 338.891 117.165 338.336C116.934 337.781 116.543 337.307 116.042 336.973C115.541 336.64 114.952 336.462 114.349 336.462C113.949 336.462 113.553 336.541 113.184 336.694C112.815 336.846 112.479 337.07 112.196 337.352C111.914 337.634 111.69 337.969 111.537 338.338C111.384 338.706 111.305 339.101 111.306 339.5Z" fill="white"/>
</g>
<defs>
<clipPath id="clip0_1259_20925">
<rect width="309" height="373" fill="white" transform="matrix(-1 0 0 1 309 0)"/>
</clipPath>
</defs>
</svg>
