<svg width="160" height="55" viewBox="0 0 160 55" fill="none" xmlns="http://www.w3.org/2000/svg">
<g clip-path="url(#clip0_1259_20880)">
<path d="M18.4924 35.5346C23.1018 35.5346 26.8384 31.8443 26.8384 27.2921C26.8384 22.7399 23.1018 19.0496 18.4924 19.0496C13.8831 19.0496 10.1465 22.7399 10.1465 27.2921C10.1465 31.8443 13.8831 35.5346 18.4924 35.5346Z" fill="white"/>
<path d="M48.51 16.764C44.9332 16.764 39.4627 15.1017 39.4627 15.1017C39.4627 15.1017 38.2704 18.1493 38.2704 22.3052C38.2704 26.4611 41.7771 37.405 48.8607 40.1755C48.8607 40.1755 58.96 33.8724 58.96 22.8593C58.96 16.2792 57.9781 15.1017 57.9781 15.1017C57.9781 15.1017 52.0868 16.764 48.51 16.764Z" fill="white"/>
<path d="M68.085 12.2845H72.9541C75.2763 12.1384 77.5986 13.088 77.5986 15.5717C77.5986 16.9596 76.6247 17.9093 75.3513 18.3476C76.9993 18.7128 78.1978 19.8086 78.1978 21.6348C78.1978 24.1185 74.9767 25.0681 73.029 24.922H68.085V12.2845ZM73.029 17.3249C74.2276 17.3249 74.8269 16.8866 74.8269 15.8639C74.8269 14.8412 74.1527 14.4029 73.029 14.4029H70.8566V17.3979H73.029V17.3249ZM73.029 22.7305C74.3025 22.7305 75.2014 22.5114 75.2014 21.0504C75.2014 19.5894 74.3025 19.3703 73.029 19.3703H70.8566V22.7305H73.029ZM82.6176 12.2845V24.849H79.9208V12.2845H82.6176ZM90.7828 23.7532C90.1835 24.5568 89.3595 25.0681 88.0111 25.0681C87.1122 25.0681 85.3892 24.4107 85.0896 23.1688C84.9398 22.6575 84.9398 22.0731 84.9398 21.7809V16.083H87.6365V21.3426C87.6365 22.2922 87.9362 23.388 89.2097 23.388C90.0337 23.388 90.7828 22.6575 90.7828 21.3426V16.083H93.4795V23.2419C93.4795 23.7532 93.5545 24.2646 93.5545 24.7759H90.8577L90.7828 23.7532ZM98.1989 21.1965C98.1989 22.3653 98.3487 23.388 99.772 23.388C100.671 23.388 101.195 23.0227 101.42 22.2192H103.817C103.592 24.4107 101.87 25.0681 99.772 25.0681C96.7007 25.0681 95.4272 23.388 95.4272 20.466C95.4272 17.8362 97.0003 15.7909 99.772 15.7909C101.42 15.7909 102.843 16.3752 103.592 17.9093C103.817 18.4206 103.967 18.932 104.042 19.4433C104.117 19.9547 104.117 20.5391 104.117 21.1234H98.1989V21.1965ZM101.345 19.4433C101.345 18.4937 101.045 17.6171 99.772 17.6171C98.5735 17.6171 98.2738 18.4937 98.1989 19.4433H101.345ZM113.181 16.3022C113.181 14.9873 112.357 13.8916 110.709 13.8916C108.761 13.8916 108.237 16.7405 108.237 18.4937C108.237 20.2469 108.761 23.0958 110.709 23.0958C112.357 23.0958 113.181 22 113.181 20.6852H116.102C115.953 23.8263 113.63 24.9951 110.709 24.9951C106.963 24.9951 105.315 22.1461 105.315 18.4206C105.315 14.7682 106.963 11.8462 110.709 11.8462C113.705 11.8462 116.028 13.015 116.102 16.1561H113.181V16.3022ZM119.998 16.083L120.073 17.6901C120.672 16.3022 121.796 15.9369 123.144 16.01V18.3476H121.945C121.496 18.3476 120.897 18.6398 120.672 19.005C120.372 19.5164 120.297 19.9547 120.297 20.5391V24.849H117.601V17.8362C117.601 17.471 117.526 16.7405 117.526 16.083H119.998ZM128.987 25.1412C126.066 25.1412 124.268 23.2419 124.268 20.466C124.268 17.6901 125.991 15.7909 128.987 15.7909C131.909 15.7909 133.706 17.6901 133.706 20.466C133.706 23.2419 131.909 25.1412 128.987 25.1412ZM128.987 23.388C130.635 23.388 130.935 21.8539 130.935 20.466C130.935 19.0781 130.635 17.544 128.987 17.544C127.339 17.544 127.039 19.0781 127.039 20.466C127.114 21.8539 127.339 23.388 128.987 23.388ZM140.149 18.4206C140.149 17.8362 139.549 17.544 138.95 17.544C138.201 17.544 137.901 17.7632 137.901 18.3476C137.901 19.7355 143.07 18.932 143.07 22.2192C143.07 24.1185 140.673 25.0681 139.025 25.0681C136.928 25.0681 135.13 24.2646 135.055 22.2922H137.527C137.602 22.9497 138.201 23.388 139.025 23.388C139.774 23.388 140.298 23.0958 140.298 22.4383C140.298 21.7078 139.025 21.4156 138.501 21.3426C136.778 20.9773 135.205 20.5391 135.205 18.5667C135.205 16.7405 137.452 15.9369 139.025 15.9369C140.898 15.9369 142.546 16.5944 142.621 18.5667H140.149V18.4206ZM149.063 18.4206C149.063 17.8362 148.464 17.544 147.864 17.544C147.115 17.544 146.816 17.7632 146.816 18.3476C146.816 19.7355 151.984 18.932 151.984 22.2192C151.984 24.1185 149.587 25.0681 147.939 25.0681C145.842 25.0681 144.044 24.2646 143.969 22.2922H146.441C146.516 22.9497 147.115 23.388 147.939 23.388C148.688 23.388 149.213 23.0958 149.213 22.4383C149.213 21.7078 147.939 21.4156 147.415 21.3426C145.692 20.9773 144.119 20.5391 144.119 18.5667C144.119 16.7405 146.366 15.9369 147.939 15.9369C149.812 15.9369 151.46 16.5944 151.535 18.5667H149.063V18.4206ZM68.085 29.378H72.9541C75.2763 29.2319 77.5986 30.1816 77.5986 32.6652C77.5986 34.0532 76.6247 35.0028 75.3513 35.4411C76.9993 35.8063 78.1978 36.9021 78.1978 38.7283C78.1978 41.212 74.9767 42.1616 73.029 42.0155H68.085V29.378ZM73.029 34.4184C74.2276 34.4184 74.8269 33.9801 74.8269 32.9574C74.8269 31.9347 74.1527 31.4964 73.029 31.4964H70.8566V34.4915L73.029 34.4184ZM73.029 39.8241C74.3025 39.8241 75.2014 39.6049 75.2014 38.1439C75.2014 36.6829 74.3025 36.4638 73.029 36.4638H70.8566V39.8241H73.029ZM82.6176 29.378V41.9425H79.9208V29.378H82.6176ZM90.7828 40.8467C90.1835 41.6503 89.3595 42.1616 88.0111 42.1616C87.1122 42.1616 85.3892 41.5042 85.0896 40.1893C84.9398 39.678 84.9398 39.0936 84.9398 38.8014V33.1035H87.6365V38.4361C87.6365 39.3858 87.9362 40.4815 89.2097 40.4815C90.0337 40.4815 90.7828 39.751 90.7828 38.4361V33.1766H93.4795V40.3354C93.4795 40.8467 93.5545 41.3581 93.5545 41.8694H90.8577L90.7828 40.8467ZM98.1989 38.29C98.1989 39.4588 98.3487 40.4815 99.772 40.4815C100.671 40.4815 101.195 40.1163 101.42 39.3127H103.817C103.592 41.5042 101.87 42.1616 99.772 42.1616C96.7007 42.1616 95.4272 40.4815 95.4272 37.5595C95.4272 34.9298 97.0003 32.8844 99.772 32.8844C101.42 32.8844 102.843 33.4688 103.592 35.0028C103.817 35.5141 103.967 36.0255 104.042 36.5368C104.117 37.0482 104.117 37.6326 104.117 38.217L98.1989 38.29ZM101.345 36.5368C101.345 35.5872 101.045 34.7106 99.772 34.7106C98.5735 34.7106 98.2738 35.5872 98.1989 36.5368H101.345ZM112.806 32.9574C112.731 31.7156 111.982 31.0581 110.634 31.0581C109.585 31.0581 108.611 31.5695 108.611 32.6652C108.611 34.0532 109.885 34.1993 111.009 34.4184C112.956 34.9298 115.878 35.4411 115.878 37.9978C115.878 41.1389 113.106 42.2347 110.334 42.2347C107.413 42.2347 105.315 41.1389 105.39 37.9248H108.237C108.162 39.3127 108.986 40.2624 110.409 40.2624C111.533 40.2624 112.956 39.8971 112.956 38.5822C112.956 37.1212 111.083 36.9751 110.035 36.6829C108.237 36.2446 105.765 35.4411 105.765 33.1766C105.765 30.3277 108.462 29.0128 111.158 29.0128C113.63 29.0128 115.578 30.3277 115.578 32.8844L112.806 32.9574ZM117.75 41.9425V29.378H120.447V34.2723C120.972 33.4688 121.871 32.9574 123.219 32.9574C124.118 32.9574 125.841 33.6149 126.14 34.8567C126.29 35.368 126.29 35.9524 126.29 36.2446V41.9425H123.668V36.6829C123.668 35.7333 123.369 34.7106 122.095 34.7106C121.271 34.7106 120.522 35.4411 120.522 36.6829V41.9425H117.75ZM131.459 29.378V31.6425H128.612V29.378H131.459ZM131.309 33.1766V41.9425H128.612V33.1766H131.309ZM136.029 38.29C136.029 39.4588 136.178 40.4815 137.602 40.4815C138.501 40.4815 139.025 40.1163 139.25 39.3127H141.647C141.422 41.5042 139.699 42.1616 137.602 42.1616C134.53 42.1616 133.257 40.4815 133.257 37.5595C133.257 34.9298 134.83 32.8844 137.602 32.8844C139.25 32.8844 140.673 33.4688 141.422 35.0028C141.647 35.5141 141.797 36.0255 141.872 36.5368C141.947 37.0482 141.947 37.6326 141.947 38.217L136.029 38.29ZM139.1 36.5368C139.1 35.5872 138.8 34.7106 137.527 34.7106C136.328 34.7106 136.029 35.5872 135.954 36.5368H139.1ZM146.216 29.378V41.9425H143.52V29.378H146.216ZM154.756 29.378H157.453V40.2624C157.453 40.8467 157.528 41.4311 157.528 42.0155H154.831C154.831 41.5772 154.756 41.212 154.756 40.7737C154.157 41.7964 153.183 42.3077 151.984 42.3077C149.363 42.3077 148.089 39.8971 148.089 37.6326C148.089 35.295 149.512 32.9574 152.284 32.9574C153.183 32.9574 154.157 33.4688 154.681 34.1993L154.756 29.378ZM152.808 40.4815C154.232 40.4815 154.756 38.8014 154.756 37.5595C154.756 36.3907 154.307 34.6376 152.808 34.6376C151.086 34.6376 150.861 36.1716 150.861 37.5595C150.861 38.8744 151.086 40.4815 152.808 40.4815ZM153.258 24.849C152.808 24.849 152.434 24.4837 152.434 24.0454C152.434 23.6071 152.808 23.2419 153.258 23.2419C153.707 23.2419 154.082 23.6071 154.082 24.0454C154.082 24.4837 153.782 24.849 153.258 24.849ZM153.258 23.0227C152.734 23.0227 152.284 23.461 152.284 23.9724C152.284 24.4837 152.734 24.922 153.258 24.922C153.782 24.922 154.232 24.4837 154.232 23.9724C154.232 23.461 153.782 23.0227 153.258 23.0227Z" fill="#231F20"/>
<path d="M153.258 23.9723H153.033V23.607H153.333C153.483 23.607 153.632 23.607 153.632 23.7531C153.632 23.9723 153.408 23.9723 153.258 23.9723ZM153.782 23.7531C153.782 23.534 153.707 23.4609 153.408 23.4609H152.883V24.5567H153.033V24.0453H153.258L153.632 24.5567H153.782L153.483 24.0453C153.632 24.0453 153.782 23.9723 153.782 23.7531ZM159.026 41.8693C158.577 41.8693 158.202 41.5041 158.202 41.0658C158.202 40.6275 158.577 40.2623 159.026 40.2623C159.475 40.2623 159.85 40.6275 159.85 41.0658C159.85 41.5041 159.475 41.8693 159.026 41.8693ZM159.026 40.0431C158.502 40.0431 158.052 40.4814 158.052 40.9927C158.052 41.5041 158.502 41.9424 159.026 41.9424C159.55 41.9424 160 41.5041 160 40.9927C160 40.4814 159.55 40.0431 159.026 40.0431Z" fill="#231F20"/>
<path d="M158.951 40.9927H158.727V40.6275H159.026C159.176 40.6275 159.326 40.6275 159.326 40.7736C159.326 40.9927 159.176 40.9927 158.951 40.9927ZM159.551 40.7736C159.551 40.5544 159.476 40.4814 159.176 40.4814H158.652V41.5771H158.802V41.0658H159.026L159.326 41.5771H159.476L159.176 41.0658C159.401 41.0658 159.551 40.9927 159.551 40.7736Z" fill="#231F20"/>
<path d="M28.2226 39.1173C27.2553 39.1173 26.5112 39.8522 26.5112 40.8075C26.5112 41.7628 27.2553 42.4977 28.2226 42.4977C29.1155 42.4977 29.934 41.7628 29.934 40.8075C29.934 39.8522 29.1899 39.1173 28.2226 39.1173ZM28.2226 42.2037C27.4041 42.2037 26.8089 41.6159 26.8089 40.8075C26.8089 39.9991 27.4041 39.4113 28.2226 39.4113C29.0411 39.4113 29.6364 39.9991 29.6364 40.8075C29.6364 41.6159 29.1155 42.2037 28.2226 42.2037Z" fill="#008BCC"/>
<path d="M29.115 40.3666C29.115 39.9992 28.9661 39.8522 28.4453 39.8522H27.6268V41.7629H27.85V40.9545H28.2965L28.8173 41.7629H29.115L28.5197 40.9545C28.8917 40.881 29.115 40.7341 29.115 40.3666ZM28.2221 40.6606H27.85V40.0727H28.3709C28.5941 40.0727 28.8173 40.0727 28.8173 40.3666C28.8917 40.7341 28.4453 40.6606 28.2221 40.6606ZM14.8285 29.5641C14.7541 29.5641 14.7541 29.5641 14.6797 29.6376L11.8521 33.8998C12.745 34.2672 13.7124 34.4877 14.7541 34.4877C15.7958 34.4877 16.7631 34.2672 17.656 33.8998L14.8285 29.6376C14.9029 29.5641 14.8285 29.5641 14.8285 29.5641ZM12.0754 26.0367L7.83407 25.6693C7.68525 26.1837 7.61084 26.7716 7.61084 27.3595C7.61084 29.1232 8.28052 30.7399 9.32224 31.9892L12.2986 26.4042C12.4474 26.2572 12.373 26.1102 12.0754 26.0367Z" fill="#008BCC"/>
<path d="M21.5256 20.6721V12.3682H8.0576V20.6721H-0.350586V33.9732H8.0576V42.2772H21.5256V33.9732H29.9338V20.6721H21.5256ZM14.8288 19.1289C18.1772 19.1289 21.0791 21.0396 22.3441 23.9056H16.3914C15.5729 23.9056 15.2008 23.3912 15.1264 23.0237C15.1264 22.5828 15.2008 22.4358 15.5729 21.9214C16.0193 21.3335 15.7217 20.3047 14.7544 20.2312C13.7871 20.2312 13.4894 21.3335 13.9359 21.9214C14.3079 22.4358 14.3823 22.5828 14.3823 23.0237C14.3823 23.3912 14.0103 23.9056 13.1174 23.9056H7.16469C8.57846 21.1131 11.4804 19.1289 14.8288 19.1289ZM6.49502 27.3594C6.49502 26.3306 6.71824 25.3753 7.01588 24.4935L12.5965 25.0079C13.6383 25.1548 13.7871 26.1836 13.4894 26.7715L9.69459 33.8997C7.75996 32.3565 6.49502 30.0049 6.49502 27.3594ZM19.3677 34.2672C18.0284 35.149 16.4658 35.5899 14.7544 35.5899C13.043 35.5899 11.4804 35.0755 10.141 34.2672L14.2335 28.3148C14.5312 27.8738 14.9776 27.9473 15.2752 28.3148L19.3677 34.2672ZM19.963 33.8262L16.1681 26.7715C15.8705 26.1836 16.0193 25.1548 17.0611 25.0079L22.6417 24.4935C23.0138 25.3753 23.1626 26.4041 23.1626 27.3594C23.1626 30.0049 21.8976 32.3565 19.963 33.8262Z" fill="#008BCC"/>
<path d="M20.2606 22.7297C19.3677 21.7009 18.1772 20.8926 16.8378 20.5251C17.2843 21.1865 16.9123 22.1419 16.5402 22.5828C16.4658 22.6563 16.5402 22.7297 16.5402 22.7297H20.2606ZM17.5819 26.0366C17.2843 26.0366 17.2843 26.1836 17.3587 26.3306L20.3351 31.9156C21.3768 30.6663 22.0465 29.0496 22.0465 27.2859C22.0465 26.698 21.972 26.1101 21.8232 25.5957L17.5819 26.0366ZM12.8198 20.5986C11.4804 20.9661 10.2899 21.7744 9.39697 22.8032H13.1174C13.1918 22.8032 13.1918 22.7297 13.1174 22.6563C12.7454 22.1419 12.3733 21.26 12.8198 20.5986Z" fill="#008BCC"/>
<path d="M57.0188 12.3682C53.7449 13.9849 50.4709 14.8667 46.676 14.8667C42.8812 14.8667 39.6072 13.9849 36.3332 12.3682C34.1754 16.5569 33.8777 23.3177 35.7379 28.9761C37.5238 34.4141 41.021 39.4112 46.676 42.4977C52.4055 39.4112 55.8283 34.4141 57.6141 28.9761C59.5487 23.3177 59.1767 16.5569 57.0188 12.3682ZM55.5307 28.3148C53.8937 32.9444 51.4382 37.0597 46.7504 39.9256C42.0627 37.0597 39.5328 32.9444 37.9702 28.3148C36.5564 24.1995 36.1844 19.3494 37.747 15.6016C40.1281 16.4099 41.4674 16.6304 42.7324 16.8508C43.9229 17.0713 44.9646 17.1448 46.7504 17.1448C48.4618 17.1448 49.578 16.9978 50.7685 16.8508C52.0335 16.6304 53.4472 16.4099 55.7539 15.6016C57.2421 19.3494 56.9444 24.1995 55.5307 28.3148Z" fill="#008BCC"/>
<path d="M50.7691 17.8796C49.4297 18.0266 48.016 18.1736 46.6766 18.1736C45.3372 18.1736 43.9979 18.0266 42.5841 17.8796C41.2448 17.6592 39.9054 17.3652 38.4916 16.9978C37.5243 19.7903 37.6731 23.3176 38.4916 26.4041C39.9054 32.283 43.5514 36.7657 46.6766 38.7498C49.8762 36.7657 53.4478 32.283 54.8616 26.4041C55.6056 23.2442 55.8289 19.7903 54.8616 16.9978C53.4478 17.3652 52.1828 17.7327 50.7691 17.8796ZM45.9325 36.0308C45.8581 36.3248 46.0069 36.4718 46.0069 36.6187C45.9325 36.8392 45.7837 36.7657 45.7093 36.6187C45.5605 36.3983 45.4861 36.2513 45.4861 35.8839C45.4116 35.296 45.7093 35.0755 45.8581 34.9285C46.0069 34.7816 46.1557 34.7081 46.1557 34.7081L46.2301 35.6634C46.0813 35.6634 45.9325 35.7369 45.9325 36.0308ZM47.1975 36.9862C47.1975 37.1331 47.123 37.2801 46.8254 37.2801C46.6022 37.2801 46.4534 37.2066 46.4534 36.9127C46.379 35.7369 46.379 33.6058 46.379 33.6058C46.379 33.6058 46.6766 33.6793 46.8998 33.8262C46.9742 33.8262 47.123 33.9732 47.2719 34.1202C47.2719 34.1937 47.3463 34.1937 47.3463 34.2672C47.2719 35.0755 47.1975 36.6187 47.1975 36.9862ZM48.1648 34.7816C47.8671 35.002 47.5695 35.0755 47.5695 35.0755V34.1937C47.5695 34.1937 47.6439 34.1202 47.6439 33.9732C47.5695 33.8262 46.9742 33.3853 46.6766 33.2383C46.3046 33.0914 45.8581 32.9444 45.5605 32.8709C44.8164 32.577 44.5187 31.9156 44.8164 31.1807C44.8908 30.8868 45.2628 30.7398 45.4116 30.6663C45.5605 30.5928 45.8581 30.5193 45.8581 30.5193L45.9325 31.5481C45.9325 31.5481 45.8581 31.5481 45.7837 31.6951C45.7093 31.8421 45.8581 31.9891 45.9325 31.9891C46.4534 32.2095 47.123 32.5035 47.6439 32.7974C48.3136 33.1649 48.5368 33.4588 48.5368 33.9732C48.6112 34.3406 48.388 34.6346 48.1648 34.7816ZM46.3046 30.0049C46.8254 30.0784 46.9742 30.0784 47.4207 30.1519L47.3463 32.2095L46.8998 31.9891L46.4534 31.7686L46.3046 30.0049ZM49.2809 30.4458C49.2065 30.8133 48.9833 31.1072 48.6112 31.3277C48.2392 31.5481 47.7927 31.5481 47.7927 31.5481V30.2989C47.7927 30.2989 47.8671 30.2989 47.9415 30.2254C48.016 30.1519 48.016 30.0784 48.016 30.0049C48.016 29.9314 47.9415 29.858 47.8671 29.7845C47.7183 29.711 47.5695 29.711 47.4951 29.711L45.7093 29.4905C44.6676 29.3435 43.8491 28.6822 43.9235 27.6534C43.9979 26.992 44.6676 26.7715 45.1884 26.5511L45.5605 27.2859C45.6349 27.5799 45.7093 27.7268 45.7093 27.7268C45.7093 27.7268 45.4861 27.8003 45.4861 27.9473C45.4861 28.0943 45.7093 28.1678 45.7837 28.1678C46.5278 28.2413 47.5695 28.3882 48.0904 28.6087C48.4624 28.7557 48.76 28.9026 48.9833 29.1966C49.2809 29.711 49.3553 30.0784 49.2809 30.4458ZM45.8581 25.6692C45.8581 25.6692 46.0813 25.6692 46.751 25.7427C47.1975 25.7427 47.5695 25.8897 47.5695 25.8897L47.4951 28.0943C46.9742 28.0208 46.6766 27.9473 46.2301 27.8738C46.0813 27.0655 45.8581 26.7715 45.5605 26.1836C45.4861 26.0367 45.5605 25.9632 45.5605 25.9632C45.6349 25.8897 45.9325 25.8162 45.9325 25.8162L45.8581 25.6692ZM47.8671 27.8738C47.8671 27.8738 47.9415 26.845 47.9415 26.3306C48.2392 26.2571 48.3136 25.9632 48.1648 25.7427C48.0904 25.5957 47.8671 25.5222 47.7927 25.5222C47.1975 25.3753 46.6766 25.3753 46.0813 25.3018C45.5605 25.2283 45.114 25.1548 44.6676 25.0813C43.7002 24.8609 42.8073 24.3465 42.3609 23.4646C41.84 22.3623 42.2865 20.9661 43.4026 20.4517C44.2211 20.0108 45.114 20.0842 45.9325 20.4517C46.2301 20.5252 46.379 20.8191 46.5278 21.0396C46.6022 21.1131 46.751 21.1865 46.8254 21.3335C46.8998 21.407 46.751 21.407 46.751 21.407C46.6022 21.4805 45.9325 21.4805 45.7837 21.407H44.8908C45.114 21.554 45.4116 21.7009 45.7093 21.8479C45.8581 21.9214 46.0069 21.9214 46.1557 21.9949C46.2301 21.9949 46.379 22.0684 46.379 22.1419C46.379 22.2154 46.2301 22.2154 46.0813 22.2888C45.8581 22.3623 45.5605 22.3623 45.2628 22.2888C44.8164 22.2154 44.5932 21.9214 44.2955 22.0684C44.0723 22.2154 44.0723 22.4358 44.1467 22.7298C44.2211 23.1707 44.6676 23.3176 45.0396 23.4646C46.3046 23.9055 47.7183 23.6116 48.9089 24.273C49.3553 24.4934 49.9506 25.0078 50.025 25.5222C50.397 27.5799 47.8671 27.8738 47.8671 27.8738ZM50.0994 21.0396C50.025 21.26 49.9506 21.26 49.8018 21.407C49.5041 21.7009 49.0577 21.9949 48.6112 22.3623C48.3136 22.5828 48.0904 22.7298 47.8671 23.0972C47.7927 23.1707 47.7183 23.3176 47.7183 23.3176C46.9742 23.1707 46.3046 23.1707 45.7093 23.0237V22.4358C45.7093 22.4358 46.379 22.4358 46.4534 21.9949C46.4534 21.9949 46.4534 21.8479 46.379 21.7744C46.3046 21.7009 46.0813 21.6275 46.0069 21.6275C46.5278 21.7009 47.0486 21.9214 47.5695 22.1419C47.5695 22.0684 47.4951 21.8479 47.4951 21.8479C47.4207 21.7744 47.3463 21.7009 47.123 21.6275C46.8254 21.554 46.0069 21.4805 46.0069 21.4805H46.6766C46.8254 21.4805 47.0486 21.407 47.0486 21.3335C47.123 21.26 47.0486 21.1131 46.8998 20.9661L46.6766 20.7456C46.6022 20.5986 46.4534 20.4517 46.379 20.3047C46.2301 20.0842 45.6349 19.8638 45.6349 19.8638C45.6349 19.8638 45.5605 19.4963 45.7093 19.3494C45.7837 19.2024 46.0813 19.2024 46.1557 19.2759C46.5278 19.4963 47.0486 19.7168 47.5695 19.8638C47.7183 19.9373 47.7183 19.9373 47.7183 20.1577C47.7927 20.5252 47.6439 21.0396 47.7183 21.26C47.7183 21.3335 47.8671 21.3335 47.8671 21.3335C48.388 21.0396 48.6856 20.5986 49.2065 20.3782C49.5785 20.2312 50.2482 20.5252 50.0994 21.0396ZM57.1682 39.1908C56.2753 39.1908 55.5312 39.9256 55.5312 40.8075C55.5312 41.6893 56.2753 42.4242 57.1682 42.4242C58.0611 42.4242 58.8052 41.6893 58.8052 40.8075C58.8052 39.9256 58.0611 39.1908 57.1682 39.1908ZM57.1682 42.2037C56.3497 42.2037 55.7545 41.6158 55.7545 40.8075C55.7545 39.9991 56.3497 39.4112 57.1682 39.4112C57.9867 39.4112 58.582 39.9991 58.582 40.8075C58.582 41.6158 57.9867 42.2037 57.1682 42.2037Z" fill="#008BCC"/>
<path d="M58.0602 40.3665C58.0602 39.9991 57.9114 39.8521 57.3905 39.8521H56.572V41.7628H56.7952V40.9544H57.1673L57.6881 41.7628H57.9858L57.3905 40.9544C57.7626 40.8809 58.0602 40.734 58.0602 40.3665ZM57.1673 40.734H56.7952V40.1461H57.3161C57.5393 40.1461 57.7626 40.1461 57.7626 40.44C57.7626 40.734 57.3905 40.734 57.1673 40.734ZM45.1131 20.5251C45.2619 20.6721 45.2619 20.8191 45.4851 20.8191C45.6339 20.8191 45.7083 20.7456 45.7827 20.6721H45.9316C45.7083 20.4517 45.1875 20.4517 44.8154 20.3782C44.9642 20.5251 45.0387 20.4517 45.1131 20.5251Z" fill="#008BCC"/>
</g>
<defs>
<clipPath id="clip0_1259_20880">
<rect width="160" height="55" fill="white"/>
</clipPath>
</defs>
</svg>
