<svg width="45" height="45" viewBox="0 0 45 45" fill="none" xmlns="http://www.w3.org/2000/svg">
<g clip-path="url(#clip0_1259_22818)">
<path d="M44.0418 22.1108C44.0418 34.0455 34.3559 43.7215 22.4064 43.7215C10.457 43.7215 0.770996 34.0455 0.770996 22.1108C0.770996 10.176 10.457 0.5 22.4064 0.5C34.3559 0.5 44.0418 10.176 44.0418 22.1108Z" fill="#12C64B" stroke="#2D2A26"/>
<path d="M30.4029 30.2841C30.2276 30.5834 29.9405 30.801 29.6047 30.8891C29.2689 30.9772 28.9119 30.9286 28.6119 30.754C25.1684 28.7439 21.1915 28.4223 18.4598 28.4927C16.6854 28.538 14.9207 28.7705 13.1951 29.1861C12.8739 29.2429 12.5429 29.178 12.2671 29.004C11.9912 28.83 11.7902 28.5595 11.7034 28.2454C11.6166 27.9312 11.6503 27.5961 11.7977 27.3054C11.9452 27.0147 12.1959 26.7894 12.5009 26.6735C14.4019 26.2015 16.3483 25.9353 18.3064 25.8796C20.1803 25.8105 22.0562 25.9461 23.9006 26.2841C26.024 26.668 28.0658 27.4125 29.9375 28.4851C30.0871 28.572 30.2179 28.6877 30.3224 28.8254C30.4268 28.9632 30.5029 29.1203 30.5462 29.2876C30.5895 29.4549 30.5991 29.6291 30.5745 29.8002C30.5499 29.9713 30.4916 30.1358 30.4029 30.2841Z" fill="white"/>
<path d="M32.8376 25.2314C32.7011 25.4656 32.5054 25.6598 32.2701 25.7948C32.0349 25.9297 31.7682 26.0005 31.4969 26.0002C31.2217 26.0007 30.9514 25.9269 30.7147 25.7867C26.6372 23.4073 21.9284 23.0228 18.6911 23.1233C16.5893 23.1764 14.4991 23.4518 12.4555 23.9449C12.0645 24.0369 11.6531 23.9738 11.3078 23.7691C10.9624 23.5643 10.7099 23.2338 10.6034 22.847C10.4969 22.4602 10.5447 22.0472 10.7367 21.6948C10.9287 21.3425 11.2499 21.0782 11.6329 20.9575C13.885 20.4008 16.1908 20.0891 18.51 20.0278C20.7303 19.9425 22.9533 20.1034 25.138 20.5077C27.651 20.9628 30.0673 21.8449 32.2817 23.1158C32.6356 23.3234 32.8927 23.6625 32.9969 24.059C33.1011 24.4554 33.0438 24.877 32.8376 25.2314Z" fill="white"/>
<path d="M35.9895 19.6961C35.8637 19.9119 35.6965 20.1008 35.4974 20.2519C35.2983 20.403 35.0713 20.5134 34.8294 20.5766C34.5875 20.6399 34.3355 20.6548 34.0878 20.6206C33.8401 20.5863 33.6017 20.5035 33.3861 20.377C23.6918 14.7186 11.1174 18.083 10.9992 18.1156C10.7548 18.193 10.4973 18.2202 10.2422 18.1957C9.98699 18.1712 9.73941 18.0956 9.51423 17.9732C9.28906 17.8508 9.09094 17.6843 8.93175 17.4837C8.77255 17.283 8.65556 17.0522 8.58778 16.8053C8.52001 16.5584 8.50284 16.3003 8.53732 16.0466C8.5718 15.7929 8.6572 15.5487 8.78842 15.3287C8.91964 15.1088 9.09397 14.9176 9.30095 14.7665C9.50794 14.6155 9.74333 14.5078 9.993 14.4498C12.7488 13.7713 15.5697 13.3914 18.407 13.3166C21.1294 13.2152 23.8548 13.4124 26.5342 13.9045C29.6156 14.458 32.5795 15.5338 35.2978 17.0855C35.5156 17.2108 35.7063 17.378 35.8591 17.5773C36.0119 17.7766 36.1237 18.0042 36.188 18.2469C36.2523 18.4896 36.2678 18.7426 36.2338 18.9913C36.1997 19.24 36.1167 19.4795 35.9895 19.6961Z" fill="white"/>
</g>
<defs>
<clipPath id="clip0_1259_22818">
<rect width="44.2708" height="44.2215" fill="white" transform="translate(0.270996)"/>
</clipPath>
</defs>
</svg>
