<svg width="160" height="55" viewBox="0 0 160 55" fill="none" xmlns="http://www.w3.org/2000/svg">
<path d="M20.3429 23.7992C20.2384 22.1894 20.134 20.5997 20.066 19.011C20.066 18.8711 20.2832 18.6266 20.4397 18.5894C21.8197 18.2614 23.1955 17.8851 24.5974 17.6839C27.0583 17.3188 29.5593 17.2771 32.0319 17.5601C33.3148 17.711 34.5643 17.9847 35.7272 18.5542C37.6427 19.4929 38.7044 21.0635 39.0678 23.0366C39.3038 24.3315 39.3237 25.6646 39.3947 26.9827C39.4156 27.3781 39.4824 27.5391 39.9396 27.5381C41.0879 27.5381 42.2361 27.5713 43.3844 27.6317C43.8427 27.6558 44.0024 27.5461 44.0639 27.0783C44.3039 25.2722 44.7945 23.5316 45.7871 21.956C46.856 20.2186 48.5518 18.9219 50.5502 18.3137C54.3362 17.1275 58.1766 17.051 61.9826 18.193C64.2395 18.8701 65.9567 20.2425 66.5644 22.5486C67.2179 25.0318 66.8997 27.362 64.906 29.2445C63.6742 30.4086 62.0949 30.9399 60.4456 31.289C57.9403 31.8192 55.4006 31.7609 52.8609 31.7056C52.6385 31.7005 52.4151 31.7056 52.199 31.7056C51.9048 33.4633 52.8381 35.6929 54.833 36.6789C56.4583 37.4839 58.1942 37.5925 59.9657 37.4386C61.825 37.2687 63.6285 36.7338 65.2653 35.867C65.316 36.0104 65.3534 36.1579 65.3771 36.3077C65.4575 37.7163 65.5202 39.1189 65.609 40.5234C65.632 40.8816 65.5234 41.103 65.1518 41.1805C63.6121 41.5034 62.086 41.9471 60.5275 42.1222C57.8615 42.4241 55.1819 42.3717 52.5314 41.8606C50.0428 41.3807 47.834 40.4248 46.243 38.4196C45.0634 36.9285 44.4986 35.1949 44.1624 33.3778C44.0767 32.917 44.0444 32.4461 43.9368 31.9913C43.9034 31.8474 43.7092 31.6371 43.5798 31.6321C42.2781 31.5737 40.9701 31.5526 39.6695 31.5164C39.3667 31.5083 39.3031 31.6573 39.2895 31.9189C39.1404 34.8689 39.1321 37.8169 39.4068 40.7619C39.435 41.0637 39.4757 41.3565 39.5112 41.6926C39.3505 41.7167 39.2221 41.7469 39.0937 41.754C35.6907 41.92 32.2887 42.1081 28.8857 42.2409C26.7092 42.3255 24.538 42.2631 22.4387 41.5849C19.8217 40.7388 18.3059 38.985 17.977 36.361C17.8313 35.2999 17.8396 34.2244 18.0019 33.1655C18.3505 31.12 19.7429 29.7989 21.6312 28.9246C23.2649 28.1689 25.0071 27.7836 26.7983 27.6397C28.2859 27.521 29.7828 27.4888 31.2765 27.4465C31.6179 27.4365 31.7557 27.353 31.7212 27.0199C31.6492 26.3377 31.6533 25.6425 31.5123 24.9744C31.1563 23.2438 30.0425 22.3765 28.2219 22.2276C25.5768 22.0093 23.1216 22.62 20.7562 23.6926C20.678 23.7288 20.5997 23.765 20.5183 23.7932C20.4602 23.8015 20.4014 23.8035 20.3429 23.7992ZM53.8367 27.8399C55.0355 27.8654 56.2302 27.6953 57.3702 27.3369C59.0779 26.8076 59.9025 24.8275 59.1362 23.2529C58.8921 22.777 58.5051 22.383 58.0255 22.122C56.1569 21.1531 53.6569 22.0043 52.7519 23.8495C52.205 24.9644 52.108 26.1637 52.0391 27.3711C52.0245 27.6186 52.108 27.7423 52.3815 27.7524C52.8669 27.7745 53.3513 27.8118 53.8367 27.8399ZM31.5808 37.4708C31.5807 35.7402 31.5806 34.0861 31.5805 32.432C31.5805 32.2147 31.5805 31.9963 31.5889 31.779C31.5962 31.4862 31.4176 31.3977 31.1546 31.4158C30.1702 31.4842 29.165 31.4601 28.2057 31.6482C25.8538 32.111 24.903 33.7551 25.5962 35.9535C25.853 36.7725 26.424 37.2545 27.2424 37.4758C28.6767 37.8602 30.1183 37.7384 31.5808 37.4708Z" fill="#7D3F98"/>
<path d="M96.3782 41.7338L88.2307 41.7338C88.5164 33.8788 88.5818 26.049 88.2171 18.195C88.9729 18.1537 89.6994 18.1276 90.4228 18.0732C92.8655 17.8871 95.304 17.6426 97.7487 17.5118C100.386 17.371 103.033 17.2784 105.613 18.026C108.849 18.9617 110.311 20.9076 110.665 23.931C110.866 25.6365 110.769 27.3761 110.8 29.0996C110.845 32.1674 110.869 35.2371 110.925 38.3019C110.943 39.2396 111.039 40.1743 111.095 41.111C111.106 41.3062 111.095 41.5034 111.095 41.7288L102.974 41.7288C102.953 41.5918 102.941 41.4537 102.937 41.3153C103.021 37.8642 103.145 34.4131 103.184 30.962C103.206 29.1379 103.158 27.3067 103.022 25.4876C102.846 23.1734 101.826 22.2407 99.4337 22.1924C98.4754 22.1733 97.512 22.4178 96.5516 22.5456C96.2541 22.5858 96.1737 22.7649 96.1737 23.0487C96.1875 28.1941 96.1836 33.3395 96.2068 38.485C96.2069 39.4046 96.3186 40.3232 96.376 41.2428C96.3865 41.3817 96.3782 41.5346 96.3782 41.7338Z" fill="#7D3F98"/>
<path d="M116.6 23.8827C116.522 22.458 116.438 21.1098 116.378 19.7575C116.329 18.6719 116.322 18.5914 117.453 18.355C119.178 17.9958 120.923 17.6617 122.677 17.4967C124.786 17.2955 126.913 17.3086 129.018 17.6597C131.036 17.9968 132.892 18.6407 134.155 20.325C134.988 21.4343 135.464 22.7558 135.522 24.1242C135.626 26.2291 135.632 28.343 135.578 30.4509C135.49 33.8849 135.31 37.3178 135.658 40.7488C135.689 41.0607 135.722 41.3726 135.762 41.763C135.24 41.763 134.774 41.7439 134.312 41.763C132.022 41.8787 129.734 42.0206 127.443 42.1262C124.72 42.251 121.997 42.4482 119.301 41.7711C116.329 41.0245 114.534 39.0736 114.178 36.1266C113.997 34.6415 114.009 33.1846 114.706 31.8001C115.515 30.1963 116.916 29.2495 118.578 28.6207C120.725 27.8077 122.981 27.5512 125.267 27.4848C126.032 27.4626 126.798 27.4495 127.563 27.4455C127.798 27.4455 128 27.4264 127.967 27.1356C127.863 26.2241 127.863 25.2823 127.611 24.41C127.213 23.0315 126.061 22.3474 124.451 22.2206C121.882 22.0194 119.488 22.5959 117.178 23.6161C117.019 23.6936 116.862 23.765 116.6 23.8827ZM127.809 37.4657C127.832 37.4213 127.85 37.3744 127.862 37.3259C127.862 35.4856 127.852 33.6444 127.854 31.8042C127.854 31.4832 127.673 31.3946 127.39 31.4138C126.441 31.4792 125.477 31.4701 124.547 31.6341C122.491 31.9983 121.564 33.1303 121.665 34.9967C121.745 36.4837 122.477 37.344 123.925 37.5845C125.214 37.7986 126.536 37.7582 127.809 37.4657Z" fill="#7D3F98"/>
<path d="M84.6897 36.6236C84.7942 38.1992 84.8986 39.7356 85.0104 41.272C85.0271 41.5175 85.0302 41.7318 84.6868 41.7922C81.6711 42.3194 78.6533 42.6162 75.6719 41.6423C73.6134 40.9702 72.3377 39.5445 71.8408 37.5312C71.6142 36.5866 71.501 35.62 71.5035 34.6505C71.5033 31.0284 71.5522 27.4063 71.6073 23.7841C71.6146 23.3012 71.4789 23.1301 70.9695 23.1563C70.2639 23.1935 69.5551 23.1664 68.7878 23.1664C68.7878 21.8986 68.7742 20.6953 68.8096 19.4939C68.8096 19.3812 69.1144 19.2223 69.3002 19.18C70.7344 18.854 72.0518 18.3308 73.0204 17.2049C73.9891 16.0791 74.4129 14.7469 74.7061 13.3554C74.8105 12.8654 74.8867 12.3704 74.9806 11.8462L79.5037 11.8462C79.4098 13.9329 79.317 16.0116 79.2211 18.1588L79.8881 18.1588C81.1762 18.1588 82.4633 18.1668 83.7504 18.1588C84.0813 18.1588 84.216 18.2453 84.2129 18.5814C84.1997 19.9732 84.1998 21.3654 84.2131 22.7579C84.2131 23.101 84.0628 23.1784 83.7412 23.1764C82.402 23.1644 81.0627 23.1855 79.7234 23.1644C79.2923 23.1583 79.1587 23.2931 79.1608 23.7107C79.1787 26.8298 79.1423 29.9488 79.1936 33.0679C79.2072 33.9251 79.3941 34.7954 79.6227 35.6295C79.8106 36.3157 80.3806 36.7232 81.1092 36.9093C82.1803 37.182 83.0321 37.1267 84.6897 36.6236Z" fill="#7D3F98"/>
<path d="M139.716 18.8772C139.716 19.3571 139.73 19.839 139.707 20.319C139.701 20.4508 139.584 20.5786 139.518 20.7084C139.463 20.5876 139.364 20.4669 139.361 20.3441C139.345 19.7253 139.354 19.1056 139.361 18.4868C139.361 18.4053 139.375 18.3228 139.384 18.2232C139.772 18.0682 139.998 18.1608 140.123 18.5582C140.285 19.0824 140.488 19.5945 140.673 20.1127L140.823 20.1268C141.022 19.5905 141.218 19.0532 141.421 18.517C141.571 18.1225 141.577 18.1246 142.127 18.2292C142.127 18.9677 142.133 19.7173 142.119 20.4669C142.119 20.5494 141.997 20.6299 141.932 20.7114C141.876 20.6248 141.776 20.5403 141.773 20.4528C141.758 19.9266 141.766 19.3983 141.766 18.8711L141.627 18.845C141.425 19.3672 141.232 19.8924 141.015 20.4085C140.966 20.5262 140.833 20.6097 140.738 20.7104C140.653 20.6168 140.535 20.5363 140.489 20.4276C140.273 19.9075 140.077 19.3792 139.873 18.855L139.716 18.8772Z" fill="#7D3F98"/>
<path d="M138.665 18.8601C138.538 18.8106 138.416 18.7517 138.298 18.684C138.204 18.6176 138.143 18.4717 138.045 18.4495C137.732 18.3781 137.33 18.2483 137.176 18.6357C137.008 19.0492 137.405 19.1146 137.707 19.1981C137.91 19.2471 138.109 19.3066 138.305 19.3762C138.827 19.5845 138.987 20.2103 138.532 20.5001C138.224 20.7013 137.756 20.7265 137.365 20.7104C136.973 20.6943 136.704 20.4417 136.634 19.8944C136.829 20.004 136.947 20.0654 137.06 20.1348C137.241 20.2465 137.404 20.4226 137.6 20.4639C137.906 20.5282 138.274 20.5262 138.372 20.1449C138.476 19.7263 138.108 19.663 137.807 19.5764C137.587 19.5291 137.37 19.468 137.158 19.3933C136.636 19.1689 136.587 18.5884 137.043 18.2624C137.648 17.8378 138.483 18.0964 138.665 18.8601Z" fill="#7D3F98"/>
</svg>
