<svg width="160" height="55" viewBox="0 0 160 55" fill="none" xmlns="http://www.w3.org/2000/svg">
<path d="M43.1324 24.1611C43.1324 24.5216 42.746 24.92 42.2436 25.527C40.5239 27.5948 36.7173 31.2752 36.7173 40.4001C36.7173 45.1238 37.5095 47.0778 37.5095 49.2973C37.5095 50.3028 37.297 50.834 36.7753 50.834C35.558 50.834 33.5098 45.8447 33.5098 39.8879C33.5098 27.3862 41.548 23.8956 42.7846 23.8956C43.0358 23.8766 43.1324 24.0094 43.1324 24.1611ZM22.9016 23.8766C24.1383 23.8766 32.1765 27.3672 32.1765 39.8689C32.1765 45.8447 30.1283 50.815 28.911 50.815C28.3699 50.815 28.1767 50.2838 28.1767 49.2784C28.1767 47.0588 28.9689 45.1048 28.9689 40.3811C28.9689 31.2562 25.1431 27.5759 23.4427 25.5081C22.9403 24.901 22.5538 24.5026 22.5538 24.1422C22.5345 24.0094 22.6504 23.8766 22.9016 23.8766Z" fill="#0982C6"/>
<path d="M29.9165 26.3807C29.9165 28.0122 31.2304 29.3401 32.8535 29.3401C34.4766 29.3401 35.7906 28.0122 35.7906 26.3807C35.7906 24.7492 34.4766 23.4213 32.8535 23.4213C31.2111 23.4213 29.9165 24.7492 29.9165 26.3807Z" fill="#F8971F"/>
<path d="M57.9144 44.953C53.7407 42.4299 47.3836 39.812 38.186 38.9772C38.1667 39.0911 38.0894 39.755 38.0894 40.4C38.0894 40.7036 38.1474 41.102 38.1474 41.1778C47.1324 41.747 53.5282 43.6251 57.8564 45.1427C57.9337 45.1807 58.0303 45.2186 58.069 45.2186C58.1076 45.2186 58.1463 45.1807 58.1463 45.1427C58.1656 45.0858 58.0883 45.0479 57.9144 44.953ZM37.6063 11.2421C36.9107 10.616 36.3117 9.66749 36.7754 8.22572C37.2199 6.84086 38.3019 5.72159 39.442 5.39908C40.2149 6.29071 40.4661 7.82734 40.0217 9.2122C39.5772 10.6729 38.5531 11.1282 37.6063 11.2421ZM44.3886 16.7815C44.1374 15.9278 44.1567 14.8655 45.2967 13.9169C46.3788 13.0253 47.8473 12.6459 48.9487 12.9874C49.1033 14.1066 48.5043 15.4725 47.4222 16.3642C46.2822 17.3127 45.2001 17.1609 44.3886 16.7815ZM44.6011 25.1286C44.8909 24.2939 45.49 23.4402 46.9391 23.2885C48.3111 23.1367 49.7216 23.6489 50.4172 24.5026C49.9148 25.4891 48.6589 26.2669 47.287 26.4186C45.8378 26.5894 45.0649 25.8874 44.6011 25.1286ZM42.1471 28.1639C42.6109 27.5379 43.3645 26.9688 44.6204 27.2154C45.8378 27.443 46.8812 28.2398 47.2483 29.1504C46.5527 29.8713 45.2774 30.2128 44.0601 29.9662C42.8041 29.7195 42.3404 28.9228 42.1471 28.1639ZM34.7659 20.2531C33.9157 19.5133 33.2201 18.375 33.7611 16.6297C34.2828 14.9603 35.5774 13.6134 36.9687 13.253C37.8962 14.3153 38.2053 16.1555 37.6643 17.8249C37.1233 19.5702 35.8866 20.1204 34.7659 20.2531ZM37.9928 22.0933C37.7223 21.1258 37.7416 19.9306 39.0169 18.8683C40.2342 17.8628 41.8959 17.4455 43.1133 17.8249C43.2872 19.077 42.6109 20.6136 41.3936 21.619C40.1183 22.7004 38.9203 22.5296 37.9928 22.0933ZM40.1376 15.3397C39.5193 14.3722 39.1521 13.0822 40.1762 11.5077C41.1617 10.0279 42.8234 9.04146 44.2726 9.06043C44.891 10.3694 44.6591 12.2475 43.6736 13.7272C42.6495 15.3208 41.2969 15.5105 40.1376 15.3397ZM44.4852 21.2207C44.5045 20.1583 44.8716 18.9631 46.4754 18.2423C48.0019 17.5593 49.8182 17.6162 50.9389 18.3561C50.7457 19.684 49.6057 21.0499 48.0792 21.7329C46.4754 22.4348 45.2967 21.9036 44.4852 21.2207ZM30.4763 9.04146C30.4763 7.03056 31.4424 5.09555 32.853 4.2229C34.2635 5.09555 35.2103 7.03056 35.2103 9.04146C35.2103 11.1472 34.0316 12.1527 32.853 12.7028C31.655 12.1527 30.4763 11.1472 30.4763 9.04146ZM7.521 45.1427C7.521 45.1807 7.54032 45.2186 7.59829 45.2186C7.63693 45.2186 7.71422 45.1807 7.81084 45.1427C12.1391 43.6251 18.5542 41.747 27.5199 41.1778C27.5392 41.102 27.5779 40.7036 27.5779 40.4C27.5779 39.755 27.5006 39.0911 27.4813 38.9772C18.2837 39.812 11.9266 42.4299 7.75287 44.953C7.59829 45.0479 7.521 45.0858 7.521 45.1427ZM25.6456 9.2122C25.2012 7.82734 25.4524 6.29071 26.2253 5.39908C27.3847 5.70262 28.4667 6.84086 28.8918 8.22572C29.3556 9.66749 28.7566 10.616 28.0609 11.2421C27.1335 11.1282 26.1094 10.6729 25.6456 9.2122ZM18.2644 16.3642C17.1823 15.4536 16.5833 14.1066 16.7379 12.9874C17.8393 12.6459 19.3078 13.0063 20.3899 13.9169C21.5299 14.8655 21.5492 15.9278 21.298 16.7815C20.4672 17.1609 19.4044 17.3127 18.2644 16.3642ZM18.3996 26.4376C17.0084 26.2858 15.7524 25.508 15.2694 24.5216C15.965 23.6489 17.3755 23.1557 18.7474 23.3074C20.1966 23.4592 20.7956 24.3129 21.0855 25.1476C20.6217 25.8874 19.8488 26.5894 18.3996 26.4376ZM21.6072 29.9662C20.3899 30.1938 19.1146 29.8523 18.4383 29.1504C18.8054 28.2398 19.8488 27.443 21.0662 27.2154C22.3414 26.9688 23.0757 27.5379 23.5395 28.1639C23.3462 28.9228 22.8825 29.7195 21.6072 29.9662ZM28.003 17.8249C27.4813 16.1555 27.7711 14.3153 28.6986 13.253C30.0898 13.6134 31.3844 14.9793 31.9061 16.6297C32.4472 18.375 31.7516 19.4943 30.9014 20.2531C29.7807 20.1204 28.5633 19.5702 28.003 17.8249ZM24.293 21.638C23.0757 20.6326 22.3994 19.0959 22.5733 17.8439C23.81 17.4645 25.4524 17.8818 26.6697 18.8873C27.945 19.9496 27.9643 21.1448 27.6938 22.1123C26.7663 22.5296 25.5683 22.7004 24.293 21.638ZM21.9936 13.7652C21.0082 12.2855 20.7763 10.3884 21.3946 9.09837C22.8632 9.0794 24.5249 10.0469 25.491 11.5456C26.5151 13.1012 26.148 14.4102 25.5297 15.3777C24.3896 15.5105 23.0371 15.3208 21.9936 13.7652ZM17.6074 21.7139C16.0809 21.0309 14.9216 19.6651 14.7477 18.3371C15.8877 17.5972 17.6847 17.5403 19.2112 18.2233C20.815 18.9442 21.1821 20.1393 21.2014 21.2017C20.3899 21.9036 19.2112 22.4348 17.6074 21.7139Z" fill="#56B948"/>
<path d="M110.028 38.9962V27.4241C110.028 25.8685 109.873 22.9091 109.835 22.2261H113.487L113.66 24.5785H113.738C114.163 23.9145 115.535 21.8467 118.723 21.8467C122.568 21.8467 124.713 24.6164 124.713 28.0881V38.9772H120.636V28.8848C120.636 26.7601 119.419 25.1476 117.351 25.1476C115.206 25.1476 114.066 26.836 114.066 28.8848V38.9772H110.028V38.9962ZM86.2223 22.283H82.1452V38.9962H86.2223V22.283ZM144.306 38.9962C144.171 38.0667 143.784 35.6005 143.784 33.4757V22.6055C143.147 22.4538 140.828 21.8467 138.181 21.8467C131.283 21.8467 128.307 26.3807 128.307 31.2941C128.307 35.8091 130.626 39.3567 135.051 39.3567C138.297 39.3567 139.746 37.2888 140.287 36.2075H140.384C140.422 36.7197 140.577 38.503 140.615 38.9962H144.306ZM139.727 30.706C139.727 34.5381 138.2 36.1316 135.997 36.1316C133.775 36.1316 132.519 34.2725 132.519 31.0285C132.519 27.7086 134.471 24.9579 138.046 24.9579C138.78 24.9579 139.302 25.0338 139.746 25.1286V30.706H139.727ZM78.0875 34.8985C76.9861 35.4107 75.2084 35.7522 73.4887 35.7522C68.8126 35.7522 65.3539 32.4703 65.3539 27.462C65.3539 22.4917 68.774 19.1718 73.4887 19.1718C75.8267 19.1718 77.4885 19.722 78.0875 20.0065V16.4211C77.0634 16.0417 75.4016 15.6622 73.0636 15.6622C65.7983 15.6622 60.9097 20.5946 60.9097 27.4431C60.9097 33.931 65.4118 39.2239 73.0636 39.2239C75.305 39.2239 76.9861 38.8824 78.0875 38.484V34.8985ZM101.564 36.9853V38.2374C101.564 41.6521 99.4197 42.9801 96.7531 42.9801C94.3571 42.9801 92.5988 42.2781 92.0384 42.0884V45.4652C92.5021 45.5791 94.4344 46.1861 97.1975 46.1861C102.125 46.1861 105.41 44.1942 105.41 37.3647V22.6245C104.772 22.4727 102.473 21.8657 99.8061 21.8657C92.9079 21.8657 89.9322 26.3997 89.9322 31.3131C89.9322 35.8281 92.251 39.3756 96.6758 39.3756C99.5935 39.3756 101.004 37.6493 101.468 37.0043H101.564V36.9853ZM101.352 30.706C101.352 34.5381 99.8254 36.1316 97.6033 36.1316C95.3812 36.1316 94.1253 34.2725 94.1253 31.0285C94.1253 27.7086 96.0575 24.9579 99.6515 24.9579C100.386 24.9579 100.907 25.0338 101.352 25.1286V30.706ZM81.6622 17.9008C81.6622 19.2477 82.7829 20.329 84.1934 20.329C85.5847 20.329 86.7054 19.2477 86.7054 17.9008C86.7054 16.5539 85.5847 15.4725 84.1934 15.4725C82.8022 15.4725 81.6622 16.5728 81.6622 17.9008Z" fill="#0982C6"/>
<path d="M151.803 38.503C151.358 38.9393 150.817 39.167 150.199 39.167C149.561 39.167 149.039 38.9393 148.595 38.503C148.151 38.0667 147.938 37.5355 147.938 36.9284C147.938 36.3214 148.151 35.7902 148.595 35.3539C149.039 34.9175 149.561 34.7089 150.199 34.7089C150.817 34.7089 151.358 34.9175 151.803 35.3539C152.247 35.7902 152.459 36.3024 152.459 36.9284C152.459 37.5355 152.247 38.0667 151.803 38.503ZM148.808 35.5625C148.421 35.942 148.247 36.3783 148.247 36.9095C148.247 37.4406 148.44 37.8959 148.808 38.2754C149.194 38.6548 149.638 38.8445 150.179 38.8445C150.72 38.8445 151.184 38.6548 151.551 38.2754C151.938 37.8959 152.112 37.4406 152.112 36.9095C152.112 36.3783 151.918 35.923 151.551 35.5625C151.165 35.1831 150.701 34.9934 150.179 34.9934C149.658 35.0124 149.194 35.2021 148.808 35.5625ZM150.141 35.6953C150.45 35.6953 150.682 35.7333 150.817 35.7902C151.068 35.885 151.204 36.0937 151.204 36.4162C151.204 36.6439 151.126 36.7956 150.952 36.8905C150.875 36.9474 150.74 36.9853 150.585 37.0043C150.778 37.0423 150.914 37.1181 151.01 37.2509C151.107 37.3837 151.146 37.4976 151.146 37.6303V37.8011C151.146 37.858 151.146 37.9149 151.146 37.9908C151.146 38.0477 151.165 38.1046 151.165 38.1236L151.184 38.1615H150.778V38.1426V38.1236V38.0477V37.858C150.778 37.5734 150.701 37.3837 150.547 37.3079C150.45 37.2509 150.295 37.232 150.063 37.232H149.716V38.1995H149.271V35.7523H150.141V35.6953ZM150.624 36.0748C150.508 36.0178 150.334 35.9799 150.083 35.9799H149.716V36.8715H150.121C150.315 36.8715 150.45 36.8526 150.547 36.8146C150.72 36.7387 150.798 36.6249 150.798 36.4352C150.778 36.2645 150.74 36.1317 150.624 36.0748Z" fill="#0982C6"/>
</svg>
