<svg width="45" height="45" viewBox="0 0 45 45" fill="none" xmlns="http://www.w3.org/2000/svg">
<path d="M36.949 44.2266C27.325 45.2549 17.6746 45.2549 8.0506 44.2266C4.20978 43.8135 1.17755 40.79 0.773254 36.9492C-0.255066 27.3252 -0.255066 17.6748 0.773254 8.05078C1.18634 4.20996 4.21857 1.17773 8.0506 0.773438C17.6746 -0.254883 27.325 -0.254883 36.949 0.773438C40.7899 1.18652 43.8221 4.21875 44.2264 8.05078C45.2547 17.6748 45.2547 27.3252 44.2264 36.9492C43.8221 40.79 40.7899 43.8223 36.949 44.2266Z" fill="#FFFCF8"/>
<path d="M35.3672 41.8535C26.7979 42.7676 18.1934 42.7676 9.62402 41.8535C6.21387 41.4844 3.51563 38.7861 3.14648 35.3672C2.23242 26.7979 2.23242 18.1934 3.14648 9.62402C3.51563 6.21387 6.21387 3.51562 9.63281 3.14648C18.2022 2.23242 26.8066 2.23242 35.376 3.14648C38.7949 3.51562 41.4932 6.21387 41.8623 9.63281C42.7764 18.2021 42.7764 26.8066 41.8623 35.376C41.4844 38.7861 38.7861 41.4844 35.3672 41.8535Z" fill="url(#paint0_linear_1259_23390)"/>
<path opacity="0.5" d="M36.949 44.2266C27.325 45.2549 17.6746 45.2549 8.0506 44.2266C4.20978 43.8135 1.17755 40.79 0.773254 36.9492C-0.255066 27.3252 -0.255066 17.6748 0.773254 8.05078C1.18634 4.20996 4.21857 1.17773 8.0506 0.773438C17.6746 -0.254883 27.325 -0.254883 36.949 0.773438C40.7899 1.18652 43.8221 4.21875 44.2264 8.05078C45.2547 17.6748 45.2547 27.3252 44.2264 36.9492C43.8221 40.79 40.7899 43.8223 36.949 44.2266Z" fill="url(#paint1_linear_1259_23390)"/>
<path d="M29.4087 13.8691C28.5562 12.7441 28.0464 11.3467 28.0464 9.82617H28.0288V9.81738H26.8774C27.2026 11.4609 28.1167 12.8936 29.4087 13.8691Z" fill="#F00044"/>
<path d="M18.4922 23.001C16.3125 23.001 14.5547 24.7676 14.5547 26.9385C14.5547 28.3535 15.3018 29.6016 16.4268 30.2959C16.0576 29.6982 15.8467 28.9863 15.8467 28.2305C15.8467 26.0508 17.6133 24.293 19.7842 24.293C20.2148 24.293 20.6367 24.3633 21.0234 24.4951V20.083C20.6191 20.0215 20.2061 19.9863 19.7842 19.9863C19.7666 19.9863 19.749 19.9863 19.7314 19.9863V23.2031C19.3359 23.0713 18.9228 23.001 18.4922 23.001Z" fill="#F00044"/>
<path d="M34.752 16.5234C34.3125 16.5234 33.8818 16.4795 33.4688 16.4004V19.5381C31.9834 19.5381 30.542 19.248 29.1797 18.668C28.3008 18.2988 27.4922 17.8242 26.7451 17.2441V26.9736H26.7363C26.7275 29.1621 25.875 31.2187 24.3193 32.7656C23.0625 34.0225 21.4629 34.8311 19.7314 35.0859C19.3271 35.1475 18.9141 35.1738 18.4922 35.1738C16.5937 35.1738 14.8008 34.541 13.3418 33.3721C13.5352 33.6094 13.7373 33.8379 13.9482 34.0576C15.5039 35.6221 17.5781 36.4746 19.7754 36.4746C20.1973 36.4746 20.6104 36.4394 21.0146 36.3867C22.7461 36.123 24.3457 35.3232 25.6025 34.0664C27.1494 32.5195 28.0107 30.4629 28.0195 28.2744H28.0283V18.5361C28.7754 19.1162 29.5928 19.5908 30.4629 19.96C31.8252 20.54 33.2666 20.8301 34.752 20.8301V16.5234Z" fill="url(#paint2_linear_1259_23390)"/>
<path d="M33.46 16.4004V15.2314C31.9395 15.2314 30.5332 14.7217 29.4082 13.8691C30.3838 15.1523 31.8164 16.0752 33.46 16.4004Z" fill="#08FFF9"/>
<path d="M19.7759 32.168C20.2065 32.168 20.6284 32.0977 21.0151 31.9658C22.5796 31.4473 23.7134 29.9707 23.7134 28.2305L23.7222 21.709V9.81738H26.8774C26.7983 9.4043 26.7544 8.97363 26.7544 8.53418H26.7368V8.52539H22.439V20.4258L22.4302 26.9473C22.4302 28.6875 21.2964 30.1641 19.7319 30.6826C19.3452 30.8145 18.9233 30.8848 18.4927 30.8848C17.7368 30.8848 17.0249 30.6738 16.4272 30.3047C17.1216 31.4209 18.3608 32.168 19.7759 32.168Z" fill="url(#paint3_linear_1259_23390)"/>
<path d="M13.9482 22.4033C15.4951 20.8564 17.543 20.0039 19.7227 19.9863V18.791C19.3184 18.7295 18.9053 18.6943 18.4834 18.6943C16.2773 18.6943 14.2119 19.5557 12.6563 21.1113C11.1006 22.667 10.2393 24.7412 10.2393 26.9385C10.2393 29.1357 11.1006 31.21 12.6563 32.7656C12.876 32.9853 13.1045 33.1875 13.3418 33.3721C12.1729 31.9131 11.54 30.1201 11.54 28.2217C11.54 26.0332 12.3926 23.959 13.9482 22.4033Z" fill="#08FFF9"/>
<path d="M19.7227 35.0947C21.4542 34.831 23.0538 34.0312 24.3106 32.7744C25.8575 31.2275 26.7188 29.1709 26.7276 26.9824H26.7364V17.2441C27.4835 17.8242 28.3008 18.2988 29.171 18.668C30.5333 19.248 31.9747 19.5381 33.46 19.5381V16.4004C31.8165 16.084 30.3839 15.1611 29.3995 13.8691C28.1163 12.8936 27.1934 11.4609 26.8682 9.81738H23.713V21.7178L23.7042 28.2393C23.7042 29.9795 22.5704 31.4561 21.0059 31.9746C20.6192 32.1064 20.1973 32.1768 19.7667 32.1768C18.3516 32.1768 17.1036 31.4297 16.4092 30.3047C15.2842 29.6103 14.5372 28.3711 14.5372 26.9473C14.5372 24.7676 16.3038 23.0098 18.4747 23.0098C18.9053 23.0098 19.3272 23.0801 19.7139 23.2119V20.0039C17.5342 20.0127 15.4864 20.874 13.9395 22.4209C12.3839 23.9766 11.5225 26.0508 11.5225 28.248C11.5225 30.1377 12.1553 31.9394 13.3243 33.3984C14.7833 34.5674 16.5762 35.2002 18.4747 35.2002C18.9053 35.1826 19.3184 35.1562 19.7227 35.0947Z" fill="black"/>
<defs>
<linearGradient id="paint0_linear_1259_23390" x1="5.24338" y1="5.24356" x2="39.7565" y2="39.7567" gradientUnits="userSpaceOnUse">
<stop stop-color="#E8EBEE"/>
<stop offset="1" stop-color="#E8EBEE" stop-opacity="0"/>
</linearGradient>
<linearGradient id="paint1_linear_1259_23390" x1="22.5003" y1="36.5694" x2="22.5003" y2="44.172" gradientUnits="userSpaceOnUse">
<stop stop-color="#94A1B2" stop-opacity="0"/>
<stop offset="1" stop-color="#94A1B2"/>
</linearGradient>
<linearGradient id="paint2_linear_1259_23390" x1="21.5187" y1="22.46" x2="29.3634" y2="30.3047" gradientUnits="userSpaceOnUse">
<stop stop-color="#F00044"/>
<stop offset="1" stop-color="#C70038"/>
</linearGradient>
<linearGradient id="paint3_linear_1259_23390" x1="16.5278" y1="14.4304" x2="27.8397" y2="25.7423" gradientUnits="userSpaceOnUse">
<stop stop-color="#08FFF9"/>
<stop offset="1" stop-color="#07D4CF"/>
</linearGradient>
</defs>
</svg>
