<svg width="160" height="55" viewBox="0 0 160 55" fill="none" xmlns="http://www.w3.org/2000/svg">
<path d="M19.5343 47.1447C20.9014 47.6166 22.3358 47.8637 23.7925 47.8412C30.2021 47.8412 34.662 43.1903 34.662 34.3378V7.93763L37.1048 6.76929V34.7872C37.1048 43.8194 32.4657 49.077 25.8768 49.077C23.5908 49.077 21.3945 48.4029 19.5343 47.1447ZM16.7329 44.4485C18.2121 44.9428 19.6912 45.2574 20.9911 45.2574C26.3698 45.2574 29.9556 41.8647 29.9556 34.2255V9.95978L32.3536 8.8139V34.4277C32.3536 42.4264 28.2972 46.5381 22.6719 46.5381C20.6101 46.5381 18.5034 45.7742 16.7329 44.4485ZM15.0521 42.0669C16.195 42.4489 17.4053 42.6511 18.6155 42.696C22.8064 42.696 25.3837 40.4042 25.3837 34.3603V11.9819L27.7369 10.836V33.9783C27.7369 40.7637 24.6441 43.8194 20.2067 43.8194C18.3241 43.8419 16.5088 43.2128 15.0521 42.0669ZM23.1426 35.0119V12.9256L12.7661 17.6214V35.5511C12.7661 38.9663 14.9176 41.258 18.0776 41.258C21.2376 41.258 23.1426 38.9213 23.1426 35.0119ZM50.4396 12.8806V21.104C50.4396 24.1372 52.2325 26.5189 55.6614 26.5189C58.5973 26.5189 60.816 24.3395 60.816 21.0366V13.0829C60.7936 12.2066 61.466 11.4651 62.34 11.4427H62.3624L62.6762 11.4202V10.6338H57.5216V11.4202L57.8577 11.4427C58.7318 11.4651 59.4265 12.1841 59.4041 13.0604V13.0829V20.7895C59.4041 23.3059 58.1043 24.8338 56.0648 24.8338C54.0254 24.8338 52.7928 23.216 52.7928 20.767V12.8582C52.7928 12.0044 53.2634 11.4876 54.2271 11.4427L54.5409 11.4202V10.6338H48.6691V11.4202L49.0053 11.4427C49.9689 11.5326 50.4396 12.0044 50.4396 12.8806ZM57.4095 30.4508L57.7457 30.4733C58.5749 30.5182 59.18 30.8552 59.18 31.7764V36.6071H53.3755V31.7764C53.3755 30.8328 54.003 30.5407 54.8098 30.4733L55.1236 30.4508V29.6644H49.2518V30.4508L49.588 30.4733C50.4172 30.5182 51.0223 30.8552 51.0223 31.7764V43.1004C51.0223 44.0441 50.3948 44.3587 49.588 44.4036L49.2518 44.4261V45.2124H55.1236V44.4261L54.8098 44.4036C53.9806 44.3362 53.3755 44.0216 53.3755 43.1004V37.8204H59.1576V43.1004C59.1576 44.0441 58.5301 44.3587 57.7233 44.4036L57.3871 44.4261V45.2124H63.2589V44.4261L62.9451 44.4036C62.1383 44.3362 61.5108 44.0216 61.5108 43.1004V31.7764C61.5108 30.8328 62.1383 30.5407 62.9451 30.4733L63.2589 30.4508V29.6644H57.4095V30.4508ZM62.6762 15.2173V15.9588L63.1244 15.9813C63.7967 16.0262 64.2226 16.3632 64.2226 17.2844V24.1148C64.2226 25.036 63.7519 25.373 63.0124 25.4179L62.6762 25.4404V26.2043H67.9204V25.4404L67.6067 25.4179C66.8447 25.373 66.3965 25.036 66.3965 24.1148V20.4749C66.4413 17.8012 67.5843 16.2059 68.9514 16.2059C69.9823 16.2059 70.677 16.9249 70.677 18.2955V24.0923C70.677 25.0135 70.2064 25.3505 69.4668 25.3955L69.1306 25.4179V26.1818H74.3749V25.4179L74.0611 25.3955C73.2992 25.3505 72.8509 25.0135 72.8509 24.0923V18.0259C72.8509 16.2958 71.7976 14.8579 69.6909 14.8579C68.2118 14.8579 66.9119 15.7566 66.4189 17.3294V14.9028L62.6762 15.2173ZM92.9539 26.429C95.195 26.429 96.4501 24.9012 96.9655 23.1711L96.0019 22.9015C95.5536 24.0923 94.7916 25.036 93.2453 25.036C91.4524 25.036 90.2421 23.3284 90.2421 20.6097H97.1224V19.9581C97.1224 17.1047 95.4416 14.7905 92.7298 14.7905C89.8387 14.7905 87.9114 17.5765 87.9114 20.6097C87.9114 23.6429 89.7715 26.429 92.9539 26.429ZM92.7074 16.0487C93.9176 16.0487 94.702 17.1946 94.7916 19.5088H90.2645C90.4887 17.3743 91.3851 16.0487 92.7074 16.0487ZM82.062 23.7103C82.062 25.4404 83.0929 26.429 84.7738 26.429C86.3202 26.429 87.3511 25.2831 87.7993 23.6654L86.9925 23.4407C86.6787 24.3844 86.1633 24.9461 85.4685 24.9461C84.5272 24.9461 84.2359 24.272 84.2359 23.4632V16.2733H87.2614V15.1275H84.2359V11.7123H83.1377C82.7119 14.2961 81.4121 15.2173 80.045 15.5094V16.2958H82.0844L82.062 23.7103ZM77.4229 13.1278C78.2297 13.1053 78.8572 12.4088 78.8348 11.6C78.8123 10.836 78.1848 10.2294 77.4229 10.1845C76.6385 10.1845 76.0109 10.836 76.0109 11.6224C75.9661 12.4538 76.5936 13.1053 77.4229 13.1278C77.4004 13.1278 77.4004 13.1278 77.4229 13.1278ZM76.3919 17.2844V24.1148C76.3919 25.036 75.9213 25.373 75.1817 25.4179L74.8455 25.4404V26.2043H80.0898V25.4404L79.776 25.4179C79.0141 25.373 78.5658 25.036 78.5658 24.1148V14.9253L74.7335 15.2173V15.9588L75.2938 15.9813C75.9661 15.9813 76.3919 16.3408 76.3919 17.2844ZM102.77 26.429C104.227 26.429 105.37 25.6651 105.84 24.3844V26.2043H109.538V25.4629L109.225 25.4404C108.463 25.3955 108.014 25.0584 108.014 24.1372V10.3642L104.249 10.7012V11.4427L104.742 11.4651C105.415 11.4876 105.84 11.8471 105.84 12.7683V16.7677C105.347 15.5319 104.227 14.7905 102.77 14.7905C99.879 14.7905 98.2206 17.5765 98.2206 20.6097C98.2206 23.6429 99.8566 26.429 102.77 26.429ZM103.129 16.0487C104.765 16.0487 105.84 17.8237 105.84 20.5873C105.84 23.3508 104.787 25.1258 103.129 25.1258C101.582 25.1258 100.551 23.3733 100.551 20.5873C100.551 17.8012 101.582 16.0487 103.129 16.0487ZM135.715 33.8435C134.437 33.8435 133.317 34.6973 132.846 36.2027V33.9334L129.126 34.2255V34.9669L129.574 34.9894C130.246 35.0343 130.672 35.3714 130.672 36.2926V43.1229C130.672 44.0666 130.224 44.3811 129.462 44.4261L129.126 44.4485V45.2124H134.37V44.4485L134.056 44.4261C133.294 44.3811 132.846 44.0441 132.846 43.1229V39.3932C132.891 36.6296 134.079 34.8771 135.558 34.8771C135.827 34.8546 136.096 34.9669 136.297 35.1691C135.916 35.3714 135.67 35.7758 135.67 36.2027C135.67 36.8543 136.185 37.371 136.835 37.371C137.485 37.371 138.001 36.8318 138.001 36.0903C138.001 34.7198 136.947 33.8435 135.715 33.8435ZM142.842 33.7986C139.951 33.7986 138.023 36.5622 138.023 39.6179C138.023 42.6735 139.883 45.4371 143.066 45.4371C145.307 45.4371 146.562 43.9093 147.077 42.1792L146.114 41.9096C145.665 43.1004 144.903 44.0441 143.357 44.0441C141.564 44.0441 140.354 42.3365 140.354 39.6179H147.234V38.9663C147.234 36.1128 145.553 33.7986 142.842 33.7986ZM140.376 38.5169C140.6 36.36 141.474 35.0568 142.819 35.0568C144.029 35.0568 144.814 36.2027 144.903 38.5169H140.376ZM127.243 43.37V37.5732C127.243 35.1916 125.764 33.7986 123.254 33.7986C121.103 33.7986 119.198 35.2141 119.198 36.8318C119.175 37.4834 119.691 38.0226 120.341 38.0226C120.991 38.0226 121.528 37.5283 121.528 36.8767C121.528 36.4498 121.304 36.0454 120.923 35.8432C121.327 35.2815 122.021 34.9445 122.895 34.9445C124.263 34.9445 125.069 35.9555 125.069 37.6631V38.1799L121.797 39.5504C119.601 40.4492 118.861 41.258 118.861 42.696C118.861 44.3587 120.049 45.4147 121.932 45.4147C123.321 45.4147 124.554 44.5384 125.047 43.2352V43.5723C125.047 44.7181 125.854 45.3922 127.176 45.3922C127.647 45.3922 128.117 45.3248 128.566 45.19V44.4485C127.647 44.5609 127.243 44.2014 127.243 43.37ZM125.069 40.8536C124.957 42.8083 123.994 44.1115 122.627 44.1115C121.663 44.1115 121.035 43.4375 121.035 42.4264C121.035 41.5277 121.528 40.8087 122.447 40.4042L125.069 39.2359V40.8536ZM96.1587 42.4488C95.845 43.37 95.3519 43.9542 94.6348 43.9542C93.6935 43.9542 93.4021 43.2802 93.4021 42.4713V35.2815H96.4277V34.1356H93.4021V30.7204H92.304C91.8782 33.3043 90.5783 34.2255 89.2112 34.5176V35.304H91.2506V42.7185C91.2506 44.4485 92.2816 45.4371 93.9624 45.4371C95.5088 45.4371 96.5397 44.2912 96.988 42.6735L96.1587 42.4488ZM82.1068 43.37V37.5732C82.1068 35.1916 80.6277 33.7986 78.1176 33.7986C75.9661 33.7986 74.0611 35.2141 74.0611 36.8318C74.0387 37.4834 74.5542 38.0226 75.2041 38.0226C75.8541 38.0226 76.3919 37.5283 76.3919 36.8767C76.3919 36.4498 76.1678 36.0454 75.7868 35.8432C76.1902 35.2815 76.885 34.9445 77.759 34.9445C79.1261 34.9445 79.9329 35.9555 79.9329 37.6631V38.1799L76.6609 39.5504C74.4646 40.4492 73.725 41.258 73.725 42.696C73.725 44.3587 74.9128 45.4147 76.7953 45.4147C78.1848 45.4147 79.4175 44.5384 79.9105 43.2352V43.5723C79.9105 44.7181 80.7173 45.3922 82.0396 45.3922C82.5102 45.3922 82.9809 45.3248 83.4291 45.19V44.4485C82.5326 44.5609 82.1068 44.2014 82.1068 43.37ZM79.9553 40.8536C79.8433 42.8083 78.8796 44.1115 77.5125 44.1115C76.5488 44.1115 75.9213 43.4375 75.9213 42.4264C75.9213 41.5277 76.4143 40.8087 77.3332 40.4042L79.9553 39.2359V40.8536ZM114.469 44.0216C112.676 44.0216 111.466 42.314 111.466 39.5954C111.466 36.8318 112.653 35.0793 114.446 35.0793C115.253 35.0793 115.858 35.3489 116.239 35.8432C115.903 36.0679 115.679 36.4498 115.679 36.8543C115.679 37.5058 116.194 38.0226 116.844 38.0226C117.517 38.0226 118.01 37.4834 118.01 36.7419C118.01 35.4163 116.688 33.7761 114.312 33.7761C111.017 33.7761 109.112 36.5397 109.112 39.5954C109.112 42.6286 110.973 45.4147 114.155 45.4147C116.351 45.4147 117.584 43.9542 118.077 42.2916L117.113 41.9995C116.71 43.1454 115.97 44.0216 114.469 44.0216ZM87.7097 43.1229V29.3948L83.9445 29.7094V30.4508L84.4376 30.4733C85.1099 30.4957 85.5358 30.8552 85.5358 31.7764V43.1229C85.5358 44.0666 85.0651 44.3811 84.3255 44.4261L83.9894 44.4485V45.2124H89.2336V44.471L88.9199 44.4485C88.1803 44.3811 87.7097 44.0441 87.7097 43.1229ZM107.118 43.1229V37.0565C107.118 35.3264 106.065 33.8885 103.958 33.8885C102.479 33.8885 101.179 34.7647 100.686 36.36V29.3948L96.9207 29.7094V30.4508L97.4138 30.4733C98.0861 30.4957 98.5119 30.8552 98.5119 31.7764V43.1229C98.5119 44.0666 98.0413 44.3811 97.3017 44.4261L96.9655 44.4485V45.2124H102.187V44.471L101.874 44.4485C101.112 44.4036 100.663 44.0666 100.663 43.1454V39.5055C100.708 36.8543 101.851 35.2366 103.218 35.2366C104.249 35.2366 104.944 35.9555 104.944 37.3261V43.1454C104.944 44.089 104.473 44.4036 103.734 44.4485L103.398 44.471V45.2349H108.642V44.471L108.328 44.4485C107.566 44.3811 107.118 44.0441 107.118 43.1229ZM68.5255 33.7986C65.6345 33.7986 63.7071 36.5846 63.7071 39.6179C63.7071 42.6511 65.5672 45.4371 68.7497 45.4371C70.9908 45.4371 72.2458 43.9093 72.7613 42.1792L71.7976 41.9096C71.3494 43.1004 70.5874 44.0441 69.041 44.0441C67.2481 44.0441 66.0379 42.3365 66.0379 39.6179H72.9182V38.9663C72.9182 36.1128 71.2149 33.7986 68.5255 33.7986ZM66.0603 38.5169C66.2844 36.36 67.1585 35.0568 68.5031 35.0568C69.7133 35.0568 70.4977 36.2027 70.5874 38.5169H66.0603Z" fill="#002677"/>
</svg>
